<svg xmlns="http://www.w3.org/2000/svg" xmlns:xlink="http://www.w3.org/1999/xlink" width="3046" height="360" stroke="#000" stroke-linecap="round" stroke-linejoin="round" fill="#fff" fill-rule="evenodd"><g stroke="none"><path d="M241.6792 167.8382c-13.2725.4356-27.5543 3.3668-37.832 12.3694-4.9476 4.3337-7.776 9.1077-9.745 15.3562-2.1167 6.7195-3.0706 14.5795-3.6266 21.5952-.3034 3.8273-.5088 7.4798-1.2065 11.2728-.76 4.1235-6.4267 3.9228-6.0194 7.4538.2538 2.2016.092 4.6205 5.074 10.4074 1.6562 2.8108 4.1895 4.1884 7.253 5.25 5.212 1.806 17.2746 1.9583 22.5597.511 5.6382-1.5453 11.9102-5.2345 16.8637-8.365 6.1138-3.864 13.4094-11.7367 18.8115-18.7786s11.1015-14.2924 21.2953-18.0736c3.701-1.373 6.0183-1.3576 9.9117-1.556 1.8345-.0943 5.0195.294 7.0122.6836s2.5287.5395 4.428 1.1155l2.989.8583c.2833.0614-.2008-1.4992-.8122-3.3963s-1.5158-3.8615-2.131-5.4812c-.9668-3.1496-1.929-4.2014-3.4624-7.0536-1.616-3.009-3.184-4.7527-5.5248-7.318-2.0423-2.2382-4.0728-4.2805-6.5012-6.1103-4.3348-3.2666-10.6068-6.421-16.8388-8.2613s-14.9666-2.727-22.4982-2.4802z" fill="#0e9146"/><path d="M176.6823 248.3705c-.1724-3.453 4.8873-3.4624 5.0337-.373.1558 3.2972-4.8838 3.388-5.0337.373zm1.838 3.4448l-.176 10.548c-2.5795-3.3987-9.3616-13.1815-7.8292-18.1717l2.9666-6.1434c2.1202-.033 10.3036-.3695 11.6682.2514 2.1804.9917 3.4826 5.5048 3.0292 8.633l-8.325 15.4023-.0047-10.8018c1.2242-.8287 2.7258-1.3788 2.6456-3.545-.144-3.9313-6.416-4.0516-6.5566.0307-.092 2.6915 1.7093 2.2393 2.5818 3.7965zm-8.4656-2.6114l-37.709-1.0092c13.571-1.681 15.5863-16.4718 21.96-18.279 1.2018-.3412 6.8847.366 8.9294.4273 2.6786.0827 2.734 1.0247 5.7952 4.1684 1.8912 1.943 3.937 2.5995 1.9998 5.9946-1.6398 2.8722-1.4426 5.296-.9752 8.698zm22.1017-20.3744c2.2536.0555 4.368.2267 6.6416.151 1.8604-.0614 4.6087-.6045 6.115-.563 3.2523.0885 5.3985 3.865 7.0216 6.4303l14.9726 11.9398c-1.1286.9432-2.537 1.53-3.8792 2.0883-7.495 3.12-17.9356 5.1234-25.59 2.008l-8.241-4.0456c-.3116-2.249-.0437-3.446-.929-5.532-2.0387-4.8082-4.2298-3.9288.6115-8.98 1.1806-1.2312 2.2655-2.2383 3.277-3.498zm-18.6-31.4738l1.5135-.0295 9.5692.0024-.0035 39.945-11.0792-.0224v-39.8956zm-64.3357 33.0013c16.023-.0968 20.6932-6.109 27.8802-6.9934 1.825-.2242 2.831.987 4.747 1.9597l10.0863 3.9122c-6.2048 5.559-9.521 17.1483-20.5292 17.506-5.533.1795-20.6402-13.6833-22.1843-16.3844zm98.9-2.5157c3.348-1.505 6.33-2.0293 9.62-3.7847 4.6867-2.5004 4.0102-2.8757 9.7027-.517l21.8088 5.428c-1.1747 2.3527-16.0457 16.4658-20.98 16.4138-10.7923-.112-13.8675-11.8358-20.1527-17.54zm-120.2993-17.029c1.23-.6564 5.5354-1.7342 7.4006-2.498 10.7215-4.3903 15.4435-10.4098 23.085-1.91 3.1744 3.53 3.7482 3.7458 7.246 6.92 4.91 4.4542 7.0583 5.6772 10.3213 8.547l-13.216 5.088c-2.864.9114-13.2607 3.276-15.735 1.1628l-4.5426-4.644c-3.8154-4.0834-9.711-9.9482-14.5593-12.6646zm135.7997 9.5646c4.3796-2.825 6.736-5.2628 10.1277-8.6108 11.6517-11.4994 11.0343-13.8947 22.843-7.8008 7.325 3.78 10.36 4.1153 12.9502 5.37-8.6343 6.8505-6.8717 5.9214-13.942 12.7885-3.4742 3.375-3.3137 8.685-19.4112 3.394-1.6657-.5478-11.7284-4.5592-12.5677-5.14zM61.0165 207.743c1.033-1.248 3.5048-3.2347 5.0726-4.4518 9.5173-7.3888 21.3273-15.0682 34.1417-10.202 3.9204 1.4886 9.463 5.1 11.3814 7.4337l-24.0484 8.594c-2.6455.4793-3.8248-.647-6.115-1.4508-8.5457-2.9962-12.883-1.4544-20.4323.0767zm186.1587-9.3084c3.2087-1.7035 5.2604-4.728 11.4133-6.997 9.647-3.558 19.4466 1.1108 26.9618 6.5317 1.4804 1.0672 8.8503 6.7538 9.8148 8.3286l-14.2016-1.3847c-4.2203.6563-8.1173 3.591-12.0625 2.65-7.7147-1.8428-13.877-6.7726-18.88-7.926-.275-.0626-1.472-.2774-1.5418-.2998-.837-.2786-.1464-.0094-.91-.4333l-.595-.4686zM58.277 207.7714c.995-10.536 7.795-18.5128 14.2558-24.824 4.1862-4.0894 7.8965-6.1505 13.5724-3.2736 3.0175 1.5287 7.3712 7.651 9.0616 10.5183l-21.3803 5.8636c-4.0822 1.7153-14.4507 11.13-15.5095 11.7155zm204.6125-18.9746c1.57-2.995 5.683-9.0805 8.8527-10.6115 2.106-1.0177 6.1115-1.6634 8.0216-.4474 7.645 4.866 17.5814 17.6156 18.3783 28.781l-6.9568-6.1446c-8.0677-6.402-16.6146-12.204-28.2958-11.5772zm-152.0837-12.4402c3.2912-.4132 6.3324-.8405 9.503-1.464 4.7174-.93 6.6133-1.85 8.9956-.1535 4.86 3.4637 8.2577 5.4375 10.9422 10.8715 3.165 6.4054 2.596 11.7614 1.687 19.3226-1.099 9.1597-1.0353 10.7002.9728 19.0725l-12.2574-8.1267c-1.6527-1.288-9.7652-8.5375-10.078-9.6968-.6622-2.4507 2.0895-13.609-7.6214-26.963-.694-.955-1.6338-1.8334-2.1438-2.8627zm-28.5236-.0543c.824-.673 4.669-2.4437 5.6334-2.8427 2.0495-.8464 5.0232-2.1485 7.2674-2.439l9.4888 5.023c2.6634.393 3.826-.012 5.368 1.8722.843 1.0307 2.2476 2.923 3.055 4.225 3.6857 5.9356 6.787 14.0564 5.9263 22.8206-6.043-5.3088-11.3295-10.8253-19.0193-13.5618-3.7646-1.34-2.681-1.111-4.7173-3.6986-4.047-5.146-5.5414-9.836-13.726-10.6896l.7237-.7094zm157.4497 24.6114c-.3234-7.3547 2.943-15.8095 6.1446-20.652 7.618-11.5218 4.021-.268 16.061-10.8868l14.21 5.9475c-5.5473 1.93-6.9344 1.662-10.2304 6.2248-3.3208 4.598-3.7753 7.0253-7.644 8.423-4.0385 1.4603-7.528 3.7588-10.0875 5.9935l-8.3415 7.573-.112-2.6232zm-22.8654 21.7415c4.721-13.2666-2.9418-25.3812 2.275-37.7624 2.42-5.742 6.1186-7.932 10.517-11.2846 1.713-1.3056 1.6457-1.1462 4.0244-.733 5.3383.9255 8.1893 1.7932 14.1273 2.0552-1.3623 1.8558-2.596 3.3976-3.753 5.4292-1.0518 1.8476-2.0742 3.702-2.937 5.8507-1.7578 4.3726-2.9053 9.535-2.9053 14.7034l-3.297 7.8055c-1.9302 1.904-3.3315 3.1107-5.4918 5.2144-2.6738 2.603-8.9436 7.162-12.5595 8.7216zm-53.6013 6.1812c-4.715.0047-16.33-1.2384-18.2755-4.3573-3.342-5.3583-2.243-13.4225-1.4686-19.965.8937-7.541 1.3163-13.079-1.897-19.5138-3.806-7.619-9.5657-9.4063-10.9067-11.3648l17.6392 5.0077c3.8532 2.538 7.6096 7.03 9.915 12.2726 3.904 8.8763 4.7528 19.1043 3.995 29.056-.7508 9.8514-1.2785 5.1306.9987 8.8645zm30.7643-1.425c.0472-.1027.1334-.2208.1806-.287.9562-1.314.9444-.8535 1.25-1.5913.3282-.792-.4296-5.656-.5465-7.3782-1.523-22.5278 5.1624-47.0602 33.8973-45.96l-1.78 1.479c-11.5254 8.6237-12.3435 15.9394-10.562 31.0582.601 5.1046 1.4473 16.7468-2.538 19.3688-4.178 2.747-14.2878 3.4978-19.9024 3.3113zm82.5947-53.4373c-3.93-2.2737-8.8833-4.65-13.8592-6.0348l-6.886-21.6566c.1558 4.7646 2.557 9.2352.4026 14.5297-1.7932 4.408-6.828 4.5026-12.327 4.1095-11.7745-.843-23.0023-8.7442-40.3277 2.1674-6.083 3.8308-12.8758 10.5243-16.1317 16.788-2.3233 4.4695-2.6267 6.8837-4.218 11.85l-9.5492.0708c-3.5168-8.7925-4.7456-14.2134-11.8512-20.7228-4.9924-4.572-11.614-9.784-20.9365-11.582-11.9327-2.302-18.0714 2.027-28.65 2.9135-17.3855 1.4568-12.1653-10.4805-11.4794-18.6416-6.128 9.057-9.797 11.8536-6.8812 21.9258l-13.7777 5.9522c-11.3696 5.8093-23.5 20.7428-23.8606 35.53 6.2638-2.0953 10.7404-4.1176 17.6097-3.6016 6.546.4922 11.4382 3.2676 15.421 6.0005 3.4188 2.347 8.508 7.1315 11.313 10.1135l10.3305 10.7203c3.4732 3.4577 6.984 6.8682 11.574 9.8596 4.4387 2.8922 8.005 5.193 13.584 7.461 8.2967 3.3727 18.181 4.9192 27.1755 2.099 2.8686-.8995 4.9334-2.184 7.1775-3.002 1.2112 2.46 6.4492 12.6374 8.802 13.105 8.2944-9.45 7.0406-11.484 9.567-15.5095 5.8908 2.9677 8.6592 4.9097 15.6737 5.416 11.4216.8252 23.058-4.4564 31.5764-10.6447 6.416-4.6618 11.359-9.6507 16.4848-15.2652.9326-1.0223 1.5028-1.9432 2.4413-2.937.9633-1.02 1.5902-1.4816 2.4626-2.498 11.0284-12.8393 24.6645-21.6778 42.5422-12.569-2.4296-9.4477-2.7695-14.9382-7.704-21.7912-1.661-2.308-2.7364-3.4577-4.5698-5.375-3.2204-3.368-6.4243-6.0607-11.1287-8.7807z" fill="#1f1a17"/><path d="M179.187.5l12.757 4.152 11.9814 4.5438 13.6114 5.545 11.6356 5.251 12.3622 5.971 11.0798 5.7975 13.6215 8.0345 11.5415 7.5883 12.79 9.2813 8.923 7.1977L311.022 73.876l10.456 10.2327 18.5817 21.448 17.2145 24.4864-.006 13.4165-.6177 12.8-1.0664 14.66-1.3992 12.7-1.857 13.6035-2.0898 12.331-3.4312 15.4384-3.65 13.3216-4.8733 15.0337-4.0877 10.712-5.9597 14.0622-6.4994 13.1077-14.655 24.3025-17.965 23.9388-12.7608 4.1417-12.3642 3.368-14.27 3.514-12.5 2.5916-13.5106 2.4377-12.372 1.823-15.7413 1.507-13.7973.6447-15.8022.01-11.4507-.5787-15.2136-1.3233-14.472-2.1308-27.64-6.4284-28.317-9.6907-7.8823-10.857L54 317.771l-7.7525-12.487-6.3264-11.0878-6.4928-12.0983-5.5567-11.204-6.298-14.507-4.8768-12.9238-4.892-15.0267-2.99-11.069-3.4436-14.8807-2.446-14.424L.5 159.7867l.465-29.9284 7.8894-10.85 8.0228-9.9934 9.4795-11.2323 8.5895-9.444 9.4984-9.914 8.9376-8.7477 11.849-10.4722 10.7828-8.632 12.778-9.2978 9.6024-6.2636 13.087-7.873 12.961-6.7833 26.1395-11.0472z" fill="#000"/><path d="M179.138 6.57l10.884 3.5416 11.7865 4.4693 13.4466 5.4777 11.4686 5.1766 12.2122 5.8966 10.867 5.6877 13.3727 7.887 11.3127 7.4385 12.562 9.116 8.727 7.0383L307.1 78.132l10.1634 9.9446 18.235 21.0472 15.991 22.7474-.003 11.4477-.6097 12.59-1.0543 14.483-1.3773 12.509-1.835 13.4365-2.05 12.0944-3.368 15.1566-3.578 13.0577-4.7864 14.7658L328.83 261.89l-5.8528 13.8074-6.3175 12.74-14.38 23.8477-16.6898 22.2406-10.888 3.533-12.1613 3.3122-14.0982 3.472-12.321 2.5545-13.3447 2.4076-12.1342 1.788-15.4555 1.479-13.5224.6327-15.5215.01-11.1978-.5647-14.9376-1.2993-14.0673-2.0718-27.1223-6.3074-26.3066-9.003-6.7243-9.264-6.9095-10.544-7.658-12.3362-6.2366-10.93-6.4138-11.9494-5.4492-10.99-6.1824-14.241-4.78-12.667-4.8048-14.7608-2.9242-10.825-3.3796-14.61-2.3777-14.0202-2.3822-27.7466.432-27.8047 6.7313-9.2578 7.893-9.8296 9.364-11.0968 8.4665-9.3087 9.3817-9.7923 8.7665-8.58 11.6327-10.2822 10.5692-8.4608 12.5512-9.1324 9.39-6.1246 12.8488-7.73 12.598-6.5932L152.5637 14.75z" fill="#fefefe"/><path d="M179.1 12.6356l9.01 2.9325 11.5906 4.395 13.2826 5.4103 11.3018 5.102 12.0603 5.8235 10.654 5.5756 13.1247 7.7418 11.0838 7.2873 12.3342 8.952 8.5303 6.88 11.1128 9.6507 9.8705 9.6577 17.887 20.6466L345.7046 133.7l-.005 9.4778-.5976 12.382-1.0415 14.305-1.3582 12.3292-1.81 13.2686-2.011 11.8574-3.3052 14.8768-3.506 12.7938-4.6994 14.5-3.908 10.2384-5.7448 13.5524-6.1336 12.3722-14.106 23.393-15.4145 20.5416-9.014 2.9244-11.9604 3.2582-13.9242 3.429-12.1433 2.5186-13.1797 2.3777-11.8974 1.753-15.1666 1.451-13.2497.6207-15.2405.01-10.945-.5527-14.662-1.2743-13.6624-2.013-26.6038-6.1876-24.2972-8.3144-5.5674-7.6697-6.795-10.3692-7.5636-12.1843-6.1468-10.772-6.3335-11.8025-5.343-10.773-6.068-13.9782-4.6843-12.41-4.7185-14.493-2.857-10.581-3.3183-14.34-2.308-13.6154-2.3363-27.218.4-25.6808 5.572-7.6657 7.7618-9.6657 9.2494-10.961 8.344-9.174 9.2646-9.672 8.5955-8.4 11.418-10.0923L83.0358 59.77l12.3235-8.967 9.18-5.9866 12.61-7.587 12.2352-6.4032 25.16-10.634z" fill="#006cb1"/><path d="M186.5668 244.105c-1.7235-2.0116-3.5297-4.394-4.4824-6.88-.5808-1.517-.6694-2.648-.85-4.211-.098-.8523.04-1.673.458-2.4248.9078-1.6233 2.7163-2.2926 4.127-3.3598.7295-.5548 1.276-1.164 1.4485-2.0977.6776-3.6797.8913-7.402 1.1876-11.124.575-7.2484 1.4992-14.9667 3.689-21.915 2.0446-6.4882 5.0266-11.504 10.1714-16.0113 10.5396-9.233 25.094-12.2786 38.7373-12.726 2.7212-.0898 5.4564-.0342 8.1727.1405 4.8768.314 10.0888 1.0105 14.7825 2.3976 5.9438 1.7554 12.36 4.7717 17.2993 8.4938 2.4767 1.864 4.6158 4.008 6.6994 6.29 2.2937 2.512 4.1035 4.5804 5.7314 7.6084.6174 1.151 1.2903 2.2725 1.903 3.4235.6658 1.2525 1.1923 2.504 1.6527 3.845.6375 1.8594 1.53 3.6207 2.138 5.5072.2562.7945.5207 1.5984.738 2.406.256.9527.5064 2.1958-.647 2.74-.38.1783-.68.1688-.961.1075-1.014-.2208-2.1096-.5868-3.1012-.8878-.6942-.21-1.3883-.4238-2.0907-.6032-.7248-.1866-1.4603-.333-2.1958-.477-1.033-.202-2.0895-.3542-3.1354-.471-1.1286-.1275-2.3906-.2455-3.525-.1877-1.6528.0838-3.3385.124-4.9806.3353-1.57.203-3.0175.5808-4.5014 1.132-9.4027 3.4884-14.7587 9.915-20.652 17.598a123.235 123.235 0 0 1-5.977 7.2118c-2.0942 2.3374-4.29 4.6076-6.606 6.7278-2.047 1.871-4.2558 3.6973-6.6038 5.1813-5.172 3.27-11.3388 6.9154-17.2533 8.5375-1.6858.4615-3.5403.687-5.2804.83-2.132.176-4.2865.2255-6.4256.1854s-4.3042-.1735-6.4314-.4416c-1.7424-.2195-3.616-.5382-5.278-1.1144-3.3184-1.151-6.101-2.6962-7.958-5.768z" fill="#000"/><path d="M241.1006 164.8c-13.2725.4367-27.5544 3.3668-37.832 12.3693-4.9475 4.3338-7.776 9.1078-9.7452 15.3574-2.1167 6.7183-3.0705 14.5782-3.6265 21.594-.3034 3.8272-.5088 7.4798-1.2065 11.2728-.759 4.1235-6.4267 3.9228-6.0195 7.4538.254 2.2016.092 4.6205 5.074 10.4086 1.6563 2.8096 4.1897 4.1872 7.253 5.2497 5.212 1.8062 17.2745 1.9596 22.5597.5112 5.638-1.5453 11.9102-5.2344 16.8636-8.3652 6.114-3.8638 13.4095-11.7354 18.8116-18.7785s11.1016-14.2912 21.2953-18.0736c3.701-1.373 6.0183-1.3576 9.9116-1.556 1.8345-.0933 5.0195.294 7.0123.6835s2.5286.5395 4.428 1.1156 2.707.797 2.99.8582-.2006-1.498-.812-3.3963-1.516-3.8615-2.131-5.4812c-.967-3.1484-1.93-4.2003-3.4625-7.0535-1.616-3.0092-3.1838-4.7528-5.5247-7.317-2.0423-2.2382-4.0728-4.2817-6.501-6.1115-4.335-3.2654-10.607-6.421-16.839-8.2613s-14.9666-2.727-22.4982-2.4802z" fill="#0e9146"/><g fill="#000"><path d="M187.8232 225.6212c.6753.7177.791.4674 2.204.4674l1.83-.1263c1.1002-.0413 2.9088.138 3.898-.02.7307-.117 1.1108-.0838 1.8664-.0932 1.4177-.0177 4.918-1.0022 5.7656-.7638.2338.066.4958.177.719.269 4.7008 1.9243 9.0935 12.0625 13.9585 15.3067 4.3042 2.8698 6.3134 2.8627 11.5017 4.1483l.385-.608c-.569-.9727-.667-.6634-1.7082-.9845-5.3112-1.6386-4.9452-.687-9.8845-3.9512-2.9206-1.93-6.788-8.9814-9.9364-12.1038-.4604-.4557-.7614-.968-1.2856-1.4084l-1.5607-1.256c.5-.2243 1.3246-.3777 1.883-.5654.5962-.202 1.1958-.4285 1.8074-.6423 1.027-.3588 2.557-.9927 3.5332-1.4862l6.4787-3.4388c.6044.0318 1.4863.2668 2.105.3648 6.5448 1.0376 14.3822 5.671 21.2918 6.3806l9.5586.4817.3813-.746-.4214-.562c-1.6292-.1912-3.943.0484-5.6087-.1464-.922-.1074-1.9572-.0555-3.3727-.3-6.9627-1.2005-11.706-3.466-18.2142-5.6617-1.2407-.418-2.5558-.6634-3.8402-.935.2455-.386.9716-.765 1.4154-1.092.8417-.6186 8.8504-8.0122 9.4193-8.58l5.1424-5.1435c.8582-.8595 1.83-1.5867 2.6928-2.4484l2.6337-2.5098c1.438-.1688 3.0268-.0472 4.368.223 3.31.6658 7.102 2.4224 10.2563 3.701l13.276 5.37.596-.3848c0-1.1676-.967-1.2113-2.7305-1.923l-3.2854-1.367-13.3293-5.2817c-2.9453-1.2136-4.5142-1.5275-7.58-1.746 1.066-1.353 4.1507-3.4188 5.599-4.5214 1.6646-1.2656 5.0208-2.7837 6.978-3.3078 5.4953-1.47 7.776-1.3742 13.2713-.0012 3.8898.9716 7.4078 2.5782 11.0355 4.3915 1.1782.5902 2.2206 1.2065 3.348 1.7955 2.4365 1.2715 7.233 4.5604 9.1324 6.2946.902.8228 1.8286 1.589 2.6916 2.452 1.334 1.3328 1.0577 1.2135 2.688 2.504l.4652-.4923v-.1464c-.0496-.4628-.2267-.6575-.581-1.0093-.9018-.8984-1.7424-1.9585-2.6915-2.818-3.8167-3.4542-8.2542-6.6652-12.9302-8.9873-3.603-1.7896-6.22-3.1685-10.1065-4.4647-2.852-.9503-5.9438-1.726-8.9518-1.9455-1.1605-.085-2.3918.0413-3.5522.124.98-1.4992 1.9254-3.0622 2.8652-4.604.9892-1.6232 1.8498-2.9738 3.2263-4.3656 1.072-1.085 3.2724-2.3244 4.7787-2.6892 1.1085-.269 2.1828-.32 3.2842-.5124 1.746-.3057 1.282-.0413 2.9926-.798l.0177-.4002-.4226-.4356c-.556-.2762-6.369.8063-7.1457 1.1168-5.2426 2.0872-7.2814 6.377-10.038 10.9008-.5915.9704-.9196 2.0494-1.982 2.3032-5.9356 1.413-8.933 3.8438-13.517 7.4196l-6.5884 6.024c0-3.361-.0213-6.468.5182-9.6448.6682-3.9358 1.9066-7.8894 3.8922-11.2916 1.0884-1.8652 4.9818-7.108 6.3748-9.0747l-.6128-.6126c-.9597.262-4.1034 4.9263-4.8093 5.9863-1.655 2.485-2.806 3.8946-3.9666 6.8093-1.3434 3.374-1.825 6.1387-2.4507 9.672-.4026 2.2748-.1594 8.5256-.2928 9.2576-.124.6823-6.5802 6.6403-7.56 7.6226-.856.857-1.863 1.6066-2.694 2.4495-.8087.8193-1.7306 1.6292-2.6326 2.387-.943.7934-1.8357 1.5678-2.82 2.3245l-6.4562 3.8296c.4107-1.7224 1.576-3.14 1.7117-6.86l.1252-1.9573c-.0036-.784.125-1.2726.1227-2.0813l.0047-3.1886c-.0177-.4757-.1145-.4934-.1322-.9692-.0248-.681.0354-1.4107.0095-2.0918l-.347-6.1422c-.1983-1.243-.0224-6.847-.0248-8.547-.0023-1.236.21-2.6715.438-3.8472.4143-2.1297 1.6327-3.937 2.865-5.7067.563-.8074 1.419-1.5713 1.962-2.3244.9126-1.2655 7.2118-6.8198 8.8468-8.3333l-.4297-.5926c-1.0802-.0295-1.308.8264-2.1 1.4084-.602.4438-1.1262.9892-1.74 1.4438-1.0577.7838-2.4436 2.04-3.3845 2.982-2.1486 2.1485-4.1294 4.179-5.7267 6.8848-2.0754 3.5168-2.0788 6.382-2.0788 10.535 0 1.465-.176 4.9936.0483 6.1966.1795.9633.0083 1.9845.1724 3.0115.065.4096.026 1.125.0236 1.5677l.2385 4.415c.1605 1.373.053 3.2795-.1075 4.6536l-.138 3.0458c-.0425.3872-.1617.974-.2243 1.367-.3293 2.0648-.713 2.877-1.4827 4.7634-.5443 1.3375-.203 1.059-1.5087 1.674-4.7363 2.2265-10.0593 3.394-15.27 3.5864l-3.0564.1276c-1.111 0-2.0046.124-3.06.1216-1.034-.0012-2.145-.333-2.3268.7945v.085z"/><path d="M300.08 203.1686l1.5382 4.0218-4.0178-1.1344zM171.8 244.105c1.7247-2.0116 3.53-4.394 4.4836-6.88.5796-1.517.6694-2.648.8488-4.21.1-.8523-.0378-1.673-.458-2.4248-.9077-1.6233-2.7163-2.2926-4.1247-3.3598-.732-.5548-1.2785-1.164-1.4497-2.0977-.6776-3.6797-.8924-7.402-1.1876-11.124-.575-7.2484-1.5004-14.9667-3.6902-21.915-2.0435-6.4882-5.0267-11.504-10.1702-16.0113-10.5408-9.233-25.0942-12.2786-38.7374-12.726-2.7224-.0898-5.4564-.0342-8.174.1405-4.8767.314-10.0875 1.0105-14.7813 2.3976-5.945 1.7554-12.36 4.7717-17.3004 8.4938-2.4743 1.864-4.6147 4.008-6.6994 6.3-2.2926 2.512-4.1036 4.5804-5.7303 7.6084l-1.903 3.4235c-.6658 1.2525-1.1923 2.504-1.6527 3.845-.6375 1.8594-1.5312 3.6207-2.138 5.5072-.2573.7945-.5206 1.5984-.7378 2.406-.2562.9527-.5076 2.1958.647 2.74.38.1783.68.1688.96.1075 1.0128-.2208 2.1096-.5868 3.1024-.8878.6918-.2 1.387-.4238 2.0883-.6032.726-.1866 1.4616-.333 2.197-.477 1.033-.202 2.0883-.3542 3.1354-.47 1.1274-.1275 2.3906-.2455 3.525-.1877 1.6527.0838 3.3385.124 4.9806.3353 1.57.203 3.0163.5808 4.5014 1.132 9.4028 3.4884 14.7587 9.915 20.6507 17.598 1.9007 2.4768 3.8958 4.886 5.9782 7.2118 2.0942 2.3374 4.2888 4.6076 6.6062 6.7278 2.0457 1.87 4.2557 3.6973 6.6037 5.1813 5.172 3.27 11.3378 6.9154 17.2533 8.5375 1.6857.4615 3.5403.687 5.2792.83 2.132.176 4.2877.2255 6.4268.1854s4.3042-.1735 6.4303-.4416c1.7435-.2195 3.617-.5382 5.2792-1.1144 3.3184-1.15 6.1-2.6962 7.9567-5.768z"/></g><path d="M117.2572 164.8c13.2713.4367 27.5544 3.3668 37.832 12.3693 4.9463 4.3338 7.776 9.1078 9.744 15.3574 2.118 6.7183 3.0706 14.5782 3.6278 21.594.3034 3.8272.5088 7.4798 1.2064 11.2728.759 4.1235 6.4268 3.9228 6.0195 7.4538-.2538 2.2016-.092 4.6205-5.074 10.4086-1.6574 2.8096-4.1908 4.1872-7.253 5.2497-5.212 1.8062-17.2757 1.9596-22.5608.5112-5.637-1.5453-11.91-5.2344-16.8625-8.3652-6.114-3.8638-13.4107-11.7354-18.8126-18.7785s-11.1005-14.2912-21.2954-18.0736c-3.6997-1.373-6.017-1.3576-9.9116-1.556-1.8333-.0933-5.0183.294-7.0122.6835s-2.5275.5395-4.427 1.1156-2.708.797-2.9903.8582.202-1.498.8135-3.3963 1.5158-3.8615 2.1308-5.4812c.9657-3.1484 1.93-4.2003 3.4613-7.0535 1.6173-3.0092 3.1838-4.7528 5.5247-7.317 2.0436-2.2382 4.073-4.2817 6.501-6.1115 4.336-3.2654 10.6082-6.421 16.839-8.2613s14.9678-2.727 22.4995-2.4802z" fill="#0e9146"/><g fill="#000"><path d="M170.5357 225.6212c-.6765.7177-.79.4674-2.204.4674l-1.832-.1263c-1.1002-.0413-2.9076.138-3.898-.02-.7307-.117-1.1097-.0838-1.8652-.0932-1.4178-.0177-4.918-1.0022-5.7657-.7638-.2337.066-.4958.177-.72.269-4.6997 1.9243-9.0924 12.0625-13.9573 15.3067-4.3053 2.8698-6.3146 2.8627-11.5017 4.1483l-.386-.608c.57-.9727.667-.6634 1.7093-.9845 5.3112-1.6386 4.9452-.687 9.8845-3.9512 2.9194-1.93 6.788-8.9814 9.9364-12.1038.4604-.4557.7614-.968 1.2856-1.4084l1.5606-1.256c-.49-.2243-1.3245-.3777-1.883-.5654-.5974-.202-1.196-.4285-1.8074-.6423-1.027-.3588-2.557-.9927-3.5333-1.4862l-6.4798-3.4388c-.6044.0318-1.485.2668-2.1037.3648-6.5448 1.0376-14.3822 5.671-21.2918 6.3806l-9.5586.4817-.3814-.746.4203-.562c1.6304-.1912 3.944.0484 5.6086-.1464.922-.1074 1.9573-.0555 3.374-.3 6.9627-1.2005 11.706-3.466 18.2143-5.6617 1.2407-.418 2.5558-.6634 3.8402-.935-.2467-.386-.9716-.765-1.4154-1.092-.8418-.6186-8.8504-8.0122-9.4194-8.58l-5.1423-5.1435c-.8582-.8595-1.83-1.5867-2.694-2.4484l-2.6337-2.5098c-1.4368-.1688-3.027-.0472-4.3668.223-3.31.6658-7.102 2.4224-10.2562 3.701l-13.2762 5.37-.5973-.3848c.001-1.1676.968-1.2113 2.7317-1.923l3.2842-1.367 13.3305-5.2817c2.9453-1.2136 4.5142-1.5275 7.58-1.746-1.066-1.353-4.1507-3.4188-5.6003-4.5214-1.6633-1.2656-5.0208-2.7837-6.977-3.3078-5.4965-1.47-7.7773-1.3742-13.2725-.0012-3.8898.9716-7.4066 2.5782-11.0355 4.3915-1.1782.5902-2.2194 1.2065-3.3467 1.7955-2.438 1.2715-7.2332 4.5604-9.1338 6.2946-.9018.8228-1.8286 1.589-2.6915 2.452-1.3328 1.3328-1.0578 1.2135-2.688 2.504l-.464-.4923v-.1464c.0496-.4628.2267-.6575.5796-1.0093.902-.8984 1.7436-1.9585 2.693-2.818 3.8165-3.4542 8.254-6.6652 12.93-8.9873 3.603-1.7896 6.2178-3.1685 10.1065-4.4647 2.852-.9503 5.9426-1.726 8.9505-1.9455 1.1606-.085 2.393.0413 3.5534.124-.98-1.4992-1.9253-3.0622-2.865-4.604-.9894-1.6232-1.85-2.9738-3.2264-4.3656-1.072-1.085-3.2736-2.3244-4.7787-2.6892-1.1085-.269-2.183-.32-3.2842-.5124-1.746-.3057-1.2832-.0413-2.9927-.798l-.0177-.4002.4215-.4356c.5572-.2762 6.37.8063 7.1468 1.1168 5.2415 2.0872 7.2814 6.377 10.0368 10.9008.5913.9704.9208 2.0494 1.9832 2.3032 5.9356 1.413 8.933 3.8438 13.517 7.4196l6.5885 6.024c0-3.361.02-6.468-.5194-9.6448-.6682-3.9358-1.9066-7.8894-3.8922-11.2916-1.0873-1.8652-4.9818-7.108-6.3736-9.0747l.6115-.6126c.96.262 4.1046 4.9263 4.8106 5.9863 1.655 2.485 2.806 3.8946 3.9665 6.8093 1.3435 3.374 1.825 6.1387 2.4496 9.672.4037 2.2748.1594 8.5256.294 9.2576.124.6823 6.579 6.6403 7.56 7.6226.8546.857 1.8617 1.6066 2.694 2.4495.8087.8193 1.7307 1.6292 2.6325 2.387.9433.7934 1.8346 1.5678 2.818 2.3245l6.4562 3.8296c-.4097-1.7224-1.576-3.14-1.7118-6.86l-.124-1.9573c.0036-.784-.1263-1.2726-.1228-2.0813l-.0047-3.1886c.0166-.4757.1145-.4934.1322-.9692.025-.681-.0354-1.4107-.0106-2.0918l.3482-6.1422c.1984-1.243.0213-6.847.0248-8.547.0012-1.236-.21-2.6715-.439-3.8472-.4132-2.1297-1.6315-3.937-2.865-5.7067-.562-.8074-1.418-1.5713-1.9608-2.3244-.9126-1.2655-7.2118-6.8198-8.8468-8.3333l.4285-.5926c1.0814-.0295 1.3092.8264 2.099 1.4084.6033.4438 1.1263.9892 1.74 1.4438 1.0578.7838 2.445 2.04 3.3858 2.982 2.1473 2.1485 4.1294 4.179 5.7267 6.8848 2.0753 3.5168 2.0788 6.382 2.0788 10.535 0 1.465.1747 4.9936-.0484 6.1966-.1794.9633-.0082 1.9845-.1723 3.0115-.065.4096-.026 1.125-.0248 1.5677l-.2373 4.415c-.1617 1.373-.0543 3.2795.1075 4.6536l.138 3.0458c.0425.3872.1618.974.2243 1.367.3282 2.0648.713 2.877 1.4816 4.7634.5453 1.3375.203 1.059 1.5098 1.674 4.7363 2.2265 10.0593 3.394 15.269 3.5864l3.0563.1276c1.112 0 2.0058.124 3.061.1216 1.034-.0012 2.145-.333 2.3268.7945v.085z"/><path d="M58.278 203.1686l-1.538 4.0218 4.0172-1.1344zM179.4188 68.095c-5.7054-3.1342-8.2778-10.3342-8.2778-16.5272 0-6.4 2.733-14.662 8.1503-18.417l.824-.5703.824.5703c5.4174 3.7552 8.15 12.0282 8.15 18.417 0 6.193-2.5723 13.393-8.2766 16.5272l-.6965.3826-.6965-.3826zm15.5285 87.16c-.6753-3.9524.1913-8.0547 1.858-11.6553 1.9278-4.1637 4.97-7.8115 8.5517-10.6577 1.2324-.9798 2.537-1.8723 3.9-2.675 3.466-2.0542 7.37-3.5935 11.3282-4.3656 3.506-.6846 7.3735-.818 10.823.2254l.9597.2905.065 1c.236 3.597-.7674 7.3345-2.2265 10.595-1.6468 3.68-4.03 7.1363-6.814 10.0486-1.0872 1.14-2.2512 2.2063-3.4837 3.1862-3.5816 2.8462-7.822 4.984-12.314 5.9214-3.884.8098-8.076.7272-11.7733-.824l-.733-.3058-.1322-.7838zm.523-26.8072c-.884-3.695-.32-7.626 1.0307-11.1346 1.5618-4.0516 4.206-7.685 7.4-10.5952 1.1037-1 2.2783-1.923 3.5072-2.7647 5.5933-3.8343 13.8356-6.8647 20.6603-5.2828l.9763.2255.13.994c.916 6.945-2.8946 14.86-7.2495 20.057-.955 1.1416-1.9868 2.223-3.0906 3.224-3.204 2.9-7.0748 5.1908-11.2574 6.356-3.6218 1.0082-7.5895 1.1888-11.1818-.0472l-.7508-.2586-.1853-.7732zm-5.5755-22.0025c-1.0944-3.172-.9385-6.6734-.0508-9.8738 1.0212-3.6797 3.0245-7.0867 5.5803-9.9082.8795-.97 1.8286-1.877 2.832-2.7186 4.5757-3.8403 11.5277-7.1858 17.6464-6.383l.994.13.2266.9762c1.3978 6.0113-1.2525 13.2596-4.6264 18.1894-.7378 1.0802-1.5477 2.1132-2.4272 3.0836-2.557 2.8202-5.7514 5.1482-9.313 6.5247-3.1 1.197-6.5673 1.693-9.8302.915l-.7733-.1842-.2584-.7508zm-7.0336-22.3105c-.9054-2.656-.7697-5.5803-.0165-8.2565.8594-3.0564 2.5334-5.8814 4.6678-8.22 3.99-4.37 11.0107-8.306 17.0584-7.4904l.993.1346.2243.9763c1.145 5.0125-1.0637 11.02-3.9 15.1188-.6162.8937-1.2903 1.7484-2.0222 2.55-2.1344 2.3374-4.7976 4.2617-7.762 5.395-2.596.9916-5.4965 1.393-8.2247.732l-.77-.1877-.2562-.752zm-20.895 72.2098c-3.6973 1.5512-7.8882 1.6337-11.7732.824-4.4907-.9373-8.7323-3.0752-12.314-5.9214-1.2324-.98-2.3953-2.047-3.4837-3.1862-2.785-2.9124-5.166-6.3677-6.8128-10.0486-1.46-3.2606-2.4625-6.998-2.2276-10.595l.066-1 .9586-.2905c3.4507-1.0435 7.318-.9 10.8242-.2254 3.957.772 7.8623 2.3114 11.327 4.3656 1.3553.8027 2.6586 1.6952 3.892 2.675 3.5818 2.8462 6.6228 6.494 8.5506 10.6577 1.6668 3.6006 2.5345 7.703 1.8593 11.6553l-.1334.7838-.733.3058zm-.5926-26.865c-3.5923 1.236-7.56 1.0554-11.183.0473-4.1825-1.1652-8.0523-3.446-11.2574-6.356-1.1026-1-2.1343-2.0825-3.0905-3.224-4.3538-5.198-8.1657-13.112-7.2484-20.057l.13-.994.9774-.2255c6.8234-1.582 15.067 1.4485 20.6603 5.2828 1.2277.8417 2.4036 1.7637 3.506 2.7648 3.205 2.9 5.8495 6.5436 7.4 10.595 1.353 3.5085 1.916 7.4396 1.0318 11.1346l-.1853.7733-.75.2585zm5.48-22.0992c-3.263.778-6.7325.282-9.83-.915-3.5617-1.3765-6.7562-3.7045-9.3132-6.5248-.8783-.9703-1.688-2.0033-2.4283-3.0835-3.3727-4.9298-6.023-12.1782-4.6265-18.1894l.2267-.9762.994-.13c6.1186-.8027 13.0707 2.5428 17.6476 6.383 1.0022.8416 1.9513 1.7495 2.8308 2.7186 2.557 2.8215 4.5603 6.2285 5.5815 9.9082.8877 3.2004 1.0424 6.7017-.052 9.8738l-.2585.7508-.772.1842zm7.037-22.306c-2.7282.6612-5.6287.2598-8.2234-.732-2.9655-1.1333-5.6276-3.0575-7.762-5.395-.733-.8016-1.4072-1.6563-2.0234-2.55-2.8262-4.1-5.036-10.1064-3.9-15.12l.2243-.9762.9928-.1346c6.05-.8157 13.0706 3.1213 17.0597 7.4903 2.1343 2.3387 3.8083 5.1636 4.6677 8.22.7532 2.6762.8877 5.6004-.0166 8.2565l-.256.752-.772.1877z"/></g><path d="M180.1153 66.8273h0c4.4116-2.4224 7.527-8.3415 7.527-15.2593s-3.1154-14.17-7.527-17.2273h0c-4.4103 3.0563-7.527 10.3095-7.527 17.2273s3.1166 12.8368 7.527 15.2593h0zm16.257 88.184v.0012h.0012c6.3146 2.648 15.257.9586 22.627-4.898s12.458-15.316 11.98-22.6034h0v-.0013.0013c-7-2.112-17.356.707-24.7247 6.5625s-11.0366 14.1874-9.8844 20.9375h0zm.5036-26.9h.0012c6.108 2.1025 14.4224-.0425 20.9966-6.0124s10.7794-15.1897 9.8786-22.0214h0-.0012c-6.7112-1.5547-16.2934 1.7413-22.8678 7.71s-9.5102 14.0387-8.0074 20.3226h0zm-5.6138-22.1377h0c5.487 1.308 12.53-1.26 17.736-7.0053s8.0782-14.1142 6.717-19.973h0v-.0012.0012c-5.964-.7827-14.0115 2.8946-19.2188 8.64s-7.0736 13.006-5.2345 18.3382v.0012zm-7.033-22.305h.001c4.4978 1.0897 10.286-.9975 14.5758-5.697s6.67-11.5585 5.572-16.3715h0-.0012c-4.892-.6587-11.5065 2.334-15.7964 7.0335s-5.8448 10.653-4.3514 15.034v.0012zm-22.8215 71.3416l-.001.0012c-6.3146 2.648-15.2582.9586-22.627-4.898s-12.458-15.316-11.98-22.6034h0v-.0013.0013c7-2.112 17.3548.707 24.7248 6.5625s11.0366 14.1874 9.883 20.9375h.0012zm-.5037-26.9h-.0012c-6.1092 2.1025-14.4224-.0425-20.9978-6.0124s-10.7782-15.1897-9.8774-22.0214h0c6.7124-1.5547 16.2934 1.7413 22.87 7.71s9.5102 14.0387 8.0063 20.3226h.001zm5.614-22.1377h-.0012c-5.486 1.308-12.53-1.26-17.736-7.0053s-8.0783-14.1142-6.716-19.973h0v-.0012.0012c5.964-.7827 14.0115 2.8946 19.2176 8.64s7.0748 13.006 5.2356 18.3382v.0012zm7.03-22.305h0c-4.5 1.0897-10.286-.9975-14.577-5.697s-6.67-11.5585-5.57-16.3715h0c4.892-.6587 11.5077 2.334 15.7977 7.0335s5.8448 10.653 4.3502 15.034v.0012z" fill="#fef400"/><path d="M99.4212 251.9395c-5.0395-4.113-9.7616-8.6106-14.1153-13.4448l-8.069 4.9652-19.5317-31.749 20.9187-2.4495.4723.8394c5.3395 9.4794 12.0082 18.18 19.7677 25.8048 21.4322 21.0628 49.9535 32.855 80.026 32.855s58.5914-11.7922 80.0237-32.8526c7.7607-7.626 14.4294-16.3265 19.769-25.8072l.4734-.8394 20.9187 2.4495-19.5328 31.749-8.07-4.9652c-4.3538 4.834-9.0758 9.3307-14.1143 13.4436l5.2557 8.2164-35.1274 22.47-6.3842-9.9824c-7.377 2.715-14.9997 4.729-22.7546 6.0182v10.529h-40.9155v-10.5314c-7.7536-1.289-15.376-3.303-22.7533-6.016l-6.384 9.9825-35.1275-22.47 5.2545-8.2152z" fill="#000"/><path d="M178.9 270.2064h0c-43.365-.1428-81.1416-24.047-101.053-59.3964l-4.597.5382-13.1155 1.5348 17.5874 28.586 7.8682-4.8413c4.8908 5.5367 10.2633 10.6353 16.0503 15.232l-.293-.2337-5.173 8.089 32.691 20.9105 6.2343-9.7475-.176-.0673c7.965 3.028 16.3182 5.265 24.9644 6.6145v10.3176h38.0233v-10.3142c8.5835-1.34 16.8778-3.5545 24.7897-6.5506l6.2343 9.7475 32.6896-20.9105-5.1718-8.09-2.8132 2.183a125.994 125.994 0 0 0 18.5754-17.1896l-.007.0072 7.8705 4.8424 17.586-28.5862-17.7112-2.073c-19.9117 35.3494-57.6883 59.2537-101.053 59.3965z" fill="#da251d"/><g fill="#000"><path d="M172.8225 238.0513c-.0177-1.3458.5726-4.7386.6197-6.2366l.3672-9.3072c.0543-1.804-.0413-17.998-.2007-19.0394-.1405-.9114.0366-1.8014-.104-2.7128-.2314-1.5064-.1676-3.3916-.412-5.2202-.445-3.328-4.4423-12.6634-6.4184-15.6218-3.0174-4.52-6.75-7.86-11.0638-11.0992-4.4565-3.3468-9.568-5.8826-15.06-6.978-7.0606-1.4083-12.557-.686-19.4453 1.105-4.7434 1.2337-14.4932 3.047-18.8482.5797-2.7306-1.5477-3.68-4.492-3.512-7.5152.1347-2.4165.8795-7.2543 1.2266-9.9152-.7744.7-4.0598 5.63-4.826 6.807-3.1462 4.8342-3.8673 8.2895-2.4473 13.8144.4746 1.8464 1.0636 2.2525 2.596 3.2818 3.1674 2.1285 3.8 3.0387 7.6015 4.153 2.014.5914 3.3962.4002 5.4.4686 1.6515.0567.2.3023 2.642-.0365 4.7587-.6587 7.7927-1.2526 12.5194-2.1745 1.6032-.314 3.865-.347 5.5213-.352 2.7022-.0094 12.1853 2.2312 14.5203 3.112 5.9534 2.2454 9.318 5.6453 12.3317 11.0556 3.8296 6.8718 5.7125 15.8035 5.7196 23.668.0036 3.63.0224 5.0562-.236 8.58l-.5 5.3807c-.1252 1.0223.2255.9775.9043 1.8 1.1498 1.392 4.598 4.9782 5.5437 6.2107.3884.5064 5.1836 5.9038 5.5626 6.193zm24.3855-46.857c.2715.3896.2964.398.7993.248l.006-.647c-.333.177-.4132.085-.8052.4z"/><path d="M84.32 218.54c.3518.354.1736.2963.693.2656-.0496-.353.007-.4746-.2656-.8146-.2738.635.1948.2255-.4274.55zm100.6377 18.7017c.0177-1.3458-.5725-4.7385-.62-6.2366l-.366-9.3072c-.0555-1.804.04-17.998.2006-19.0393.1405-.9114-.0377-1.8015.1027-2.713.2326-1.5063.1677-3.3916.412-5.2202.445-3.33 4.4434-12.6634 6.4184-15.623 3.0174-4.52 6.75-7.8598 11.0637-11.098 4.4577-3.3468 9.5693-5.8837 15.0623-6.978 7.0595-1.4084 12.557-.687 19.4443 1.105 4.7445 1.2337 14.4944 3.047 18.8493.5784 2.7305-1.5464 3.6797-4.4906 3.5108-7.515-.1334-2.4153-.8783-7.2542-1.2265-9.914.7744.7 4.0598 5.63 4.826 6.807 3.1473 4.8342 3.8686 8.2895 2.4484 13.8144-.4757 1.8464-1.0636 2.2525-2.596 3.2818-3.1674 2.1286-3.8 3.0387-7.6014 4.153-2.015.5903-3.3975.4002-5.4103.4686-1.6504.0567-.2.3023-2.642-.0365-4.7575-.6588-7.7914-1.2525-12.518-2.1757-1.6032-.3128-3.8662-.346-5.5225-.3518-2.7022-.0083-12.1852 2.2312-14.5203 3.113-5.9522 2.2453-9.3167 5.6452-12.3317 11.0543-3.8284 6.8718-5.7125 15.8047-5.7196 23.6693-.0024 3.63-.0225 5.0562.2373 8.58l.5 5.3808c.125 1.0223-.2256.9774-.9043 1.8-1.15 1.392-4.598 4.977-5.545 6.2107-.3872.5065-5.1825 5.9038-5.5614 6.193zm-24.3854-46.857c-.2716.3884-.2976.398-.8004.248l-.0048-.647c.3318.177.4132.085.8052.4zm112.8874 27.346c-.3507.354-.1724.2963-.6918.2656.0484-.353-.007-.4757.2656-.8146.274.635-.196.2255.4262.55z"/><path d="M185.1536 237.6136c2.5334 2.6585 3.5982 6.6758 3.9346 10.2303.2468 2.5853-3.2487 8.0405-4.7067 10.0556-1.3647 1.884-3.0823 4.074-4.9015 5.5366l-.595.477-.5903-.4806c-1.8168-1.4815-3.5262-3.6394-4.8968-5.533-1.459-2.015-4.9546-7.4703-4.708-10.0556.3376-3.5545 1.4025-7.5718 3.9346-10.2303V196.606h12.529v41.0076z"/></g><path d="M178.89 237.9124h5.5413v-.0036c2.289 2.2607 3.813 5.8837 3.9382 10.0037.2432 1.51-1.6327 5.5-4.5745 9.5633-1.6775 2.3174-3.3798 4.2133-4.768 5.3962l-.138.11-.137-.11c-1.387-1.183-3.0895-3.0788-4.7682-5.3962-2.9406-4.0633-4.8164-8.0523-4.5733-9.5633.124-4.12 1.648-7.743 3.9383-10.0037v.0036h5.5413z" fill="#ef9a48"/><path d="M173.3492 197.329h11.0822v39.923h-11.0822z" fill="#fefefe"/><path d="M176.1816 248.2326a2.703 2.703 0 1 1 5.4169 0 2.703 2.703 0 1 1-5.4169 0z" fill="#006cb1"/><g fill="#000"><path d="M178.9 244.9034c.9197 0 1.752.373 2.354.9752s.975 1.4354.975 2.354-.373 1.7507-.975 2.354h-.0012v.0012c-.6032.602-1.4355.9752-2.3528.9752s-1.7495-.373-2.3527-.9752l-.0012-.0012c-.6033-.6032-.975-1.4354-.975-2.354a3.315 3.315 0 0 1 .9751-2.3539 3.318 3.318 0 0 1 2.3539-.9752zm1.8346 1.4946c-.47-.47-1.118-.7603-1.8346-.7603s-1.3658.2904-1.8345.7603-.7602 1.119-.7602 1.8345.2904 1.367.758 1.8357l.0023.0012c.4675.4686 1.1168.76 1.8345.76s1.366-.2904 1.8346-.76l.001-.0012c.4687-.4686.759-1.118.759-1.8357s-.2904-1.3647-.7602-1.8345z" fill-rule="nonzero"/><path d="M178.5093 251.4672c0-.1636.1317-.2952.2952-.2952h.171c.1635 0 .295.1316.295.2952v11.57c0 .1636-.1316.2952-.295.2952h-.171c-.1635 0-.2952-.1316-.2952-.2952z"/></g><g fill="#838383"><path d="M776.345 122.3104l148.8945.1193-.1016 185.785 94.1934-.1085.04-185.84 150.8605.0247c-1.948-79.7662-71.9266-70.1414-160.592-70.1414l-233.6575.1003.3624 70.06zm-118.7354 91.4283l-.0507-57.6682c1.4768-57.5454-12.8653-102.848 93.5783-104.2852l.1346 151.738c0 57.36 12.8074 102.67-92.9787 104.2712v.013H485.232v-.013c-75.8516-1.1475-90.7286-24.7708-93.0754-59.1934v-37.1757c1.85-36.256 14.5085-61.3113 93.23-62.3737l.058 64.6876h172.1656zm630.9364-63.9765h-.033l.033-97.977c-74.95.8854-91.1324 23.4002-94.093 56.5645v169.287l.026 30.1928 94.0672-.235v-157.832z"/><g fill-rule="nonzero"><path d="M1319.5488 180.784l4.7078.3035 4.9488.0613c3.8273.0295 7.4408-.4556 10.8714-1.4273 3.4624-.9715 6.4987-2.6727 9.202-5.0407 2.6715-2.3693 4.7975-5.6488 6.3464-9.8396 1.5488-4.1602 2.3375-9.4135 2.368-15.76v-95.838h-20.0415v97.2957c-.0307 3.25-.5467 5.7693-1.55 7.5306-1.0328 1.792-2.3988 3.0068-4.1307 3.7045-1.6998.668-3.643 1.0022-5.7997.9715-1.0933 0-2.2465 0-3.4613-.0295-1.184 0-2.3386-.0614-3.4624-.1523v18.22zm51.2015-127.54v97.1128c0 6.8328 1.124 12.602 3.3704 17.37s5.5874 8.4112 10.0213 10.9316c4.433 2.4908 9.9295 3.735 16.4896 3.7658 6.56-.0307 12.0554-1.275 16.4883-3.7658 4.434-2.5205 7.7747-6.1635 10.0215-10.9316s3.3703-10.5372 3.3703-17.37V53.243h-18.9486v98.39c0 3.0363-.425 5.4352-1.275 7.2567s-2.0353 3.1284-3.584 3.9488-3.4 1.2136-5.526 1.184c-2.1262.0296-3.9783-.3647-5.5273-1.184s-2.7328-2.126-3.583-3.9488-1.276-4.2204-1.276-7.2567v-98.39h-20.0415zm135.7347 127.54a26.178 26.178 0 0 1-1.8522-7.1965c-.2432-2.46-.3648-5.2237-.334-8.2908v-19.678c.0307-4.4328-.3954-8.442-1.215-11.9646-.8497-3.5522-2.2475-6.5896-4.1908-9.1s-4.585-4.4943-7.895-5.8908v-.3648c4.4635-2.0954 7.743-5.2533 9.8997-9.5043s3.218-9.626 3.218-16.186V82.578c.0306-6.56-1-12.026-3.0964-16.3678-2.0658-4.343-5.284-7.592-9.6567-9.7475-4.4033-2.157-10.052-3.2193-16.945-3.2193h-30.245v127.5403h20.0415v-51.9273h6.9237c3.0364-.0307 5.5274.516 7.4397 1.5795 1.943 1.0625 3.3704 2.7932 4.3125 5.1624.9114 2.3988 1.3657 5.5567 1.3657 9.4737v20.0428c0 2.5806.0616 4.7067.1217 6.377.09 1.6692.2126 3.0363.3955 4.1294.15 1.0625.334 2.0045.576 2.7943a35.804 35.804 0 0 0 .7295 2.3681h20.4064zm-32.6142-109.3204c3.5227-.0307 6.1342 1.033 7.7738 3.1283 1.6398 2.125 2.4602 5.4658 2.4295 9.9895V97.154c0 3.3704-.4862 6.043-1.458 8.017s-2.3374 3.4-4.1295 4.25c-1.792.8205-3.9477 1.2455-6.4374 1.2147h-7.835v-39.173h9.6565zm42.6387-18.2206v97.1128c0 6.8328 1.1238 12.602 3.3705 17.37s5.5873 8.4112 10.0213 10.9316c4.433 2.4908 9.9292 3.735 16.4894 3.7658 6.56-.0307 12.0556-1.275 16.4883-3.7658 4.434-2.5205 7.775-6.1635 10.0215-10.9316s3.3705-10.5372 3.3705-17.37V53.243h-18.9488v98.39c0 3.0363-.425 5.4352-1.275 7.2567s-2.035 3.1284-3.584 3.9488-3.4008 1.2136-5.5258 1.184c-2.126.0296-3.9783-.3647-5.5273-1.184s-2.733-2.126-3.5827-3.9488-1.2763-4.2204-1.2763-7.2567v-98.39h-20.0415zm70.8708 30.6098c0 3.6135.334 7.0453 1.093 10.294.7284 3.25 1.943 6.4385 3.6442 9.5964 1.7 3.1272 3.9477 6.3158 6.8022 9.5953 2.8237 3.2806 6.3464 6.742 10.5066 10.4168 4.342 3.7953 7.7736 7.1964 10.2633 10.2032 2.5216 3.0363 4.282 5.95 5.3453 8.7453 1.032 2.7636 1.55 5.6783 1.5182 8.7452 0 3.0376-.425 5.4363-1.275 7.258s-2.0353 3.1283-3.584 3.9476-3.4 1.2147-5.526 1.184c-2.126.0307-3.9783-.3635-5.527-1.184s-2.733-2.125-3.5827-3.9476-1.2763-4.2203-1.2763-7.258v-9.1h-18.9486v7.835c0 6.8328 1.124 12.602 3.3705 17.37s5.5873 8.4112 10.0215 10.9315c4.4328 2.4897 9.9292 3.7352 16.4893 3.766 6.56-.0307 12.0555-1.2762 16.4883-3.766 4.434-2.5204 7.775-6.1647 10.0214-10.9315s3.3705-10.5373 3.3705-17.37c.0306-3.6136-.334-7.0453-1.0932-10.294-.7284-3.2794-1.9432-6.468-3.6443-9.5964s-3.9476-6.3158-6.802-9.5952c-2.8238-3.2807-6.3158-6.742-10.5066-10.417-4.342-3.7953-7.7736-7.1964-10.2633-10.2327-2.5205-3.0068-4.2818-5.9214-5.3454-8.7157-1.0318-2.7636-1.5476-5.7-1.5182-8.7454.0307-4.5248.8807-7.744 2.6113-9.718 1.7318-1.943 4.1908-2.9147 7.4-2.8545 3.2193-.0602 5.6784.9114 7.41 2.8545 1.7318 1.9738 2.5818 5.193 2.6124 9.718v5.284h18.9485v-4c0-6.833-1.1238-12.6328-3.3102-17.3997-2.217-4.768-5.526-8.3816-9.8997-10.902-4.3726-2.4898-9.8077-3.7352-16.3064-3.766-6.5.0307-11.934 1.2762-16.3078 3.766-4.3725 2.5204-7.6827 6.134-9.8985 10.902-2.1864 4.767-3.3102 10.5668-3.3102 17.3997zm115.156-30.6098h-29.3344l-20.4064 127.5403h18.402l3.4624-23.1393h24.596l3.4627 23.1393h20.2244L1702.5362 53.243zm-15.852 22.5927h.365l9.4736 64.4998h-19.313l9.4748-64.4998zm88.362 104.9483h20.5985V53.243h-17.86v76.3414h-.37L1757.196 53.243h-25.146v127.54h18.04V88.4082h.36zm57.398-109.32h20.9485v109.32h20.0488V71.463h20.9483v-18.22h-61.9456zm90.7397 0h34.6108v-18.22h-54.66v127.54h54.66v-18.22h-34.6108v-37.3513h27.5046v-18.22h-27.5046zm92.7387 109.32h20.5886l-27.8746-70.6948 27.8746-56.8462h-20.05l-25.8658 55.207h-.3698V53.243h-20.0386v127.54h20.0386v-39.1733l6.1968-11.6615zm72.5098 0h20.5884V53.243h-17.85v76.3414h-.37l-20.2186-76.3414h-25.146v127.54h18.0402V88.4082h.3597zm53.3903-98.2063c.0308-4.525.9717-7.7442 2.7932-9.718 1.8534-1.943 4.3738-2.9147 7.592-2.8544 3.2193-.0603 5.7397.9113 7.5918 2.8544 1.8228 1.974 2.7637 5.1932 2.7945 9.718v68.8712c-.0308 4.525-.9717 7.7442-2.7945 9.718-1.852 1.943-4.3725 2.9147-7.5918 2.8545-3.218.0602-5.7385-.9114-7.592-2.8545-1.8215-1.974-2.7624-5.193-2.7932-9.718V82.5777zm-20.0415 67.5963c0 6.8328 1.184 12.602 3.5214 17.37s5.7397 8.4112 10.2646 10.9316c4.5252 2.4897 10.0817 3.7352 16.6406 3.7658 6.56-.0306 12.117-1.276 16.6418-3.7658 4.524-2.5204 7.9248-6.1647 10.2636-10.9316s3.5224-10.5372 3.5224-17.37V83.8526c0-6.833-1.184-12.6327-3.5224-17.3997s-5.7397-8.3817-10.2636-10.902c-4.5248-2.4897-10.0817-3.7352-16.6418-3.7658-6.56.0306-12.1158 1.276-16.6406 3.7658-4.525 2.5205-7.926 6.134-10.2646 10.902s-3.5214 10.5668-3.5214 17.3997v66.3214zm73.7917 30.6h53.0206v-18.22h-32.9815V53.243h-20.04zm80.1656-98.2063c.0307-4.525.9717-7.7442 2.793-9.718 1.8536-1.943 4.3738-2.9147 7.592-2.8544 3.22-.0603 5.7395.9113 7.5917 2.8544 1.8227 1.974 2.7635 5.1932 2.794 9.718v68.8712c-.0306 4.525-.9714 7.7442-2.794 9.718-1.8522 1.943-4.3726 2.9147-7.5917 2.8545-3.2183.0602-5.7385-.9114-7.592-2.8545-1.8214-1.974-2.7624-5.193-2.793-9.718V82.5777zm-20.0417 67.5963c0 6.8328 1.1843 12.602 3.5215 17.37s5.7397 8.4112 10.2648 10.9316c4.525 2.4897 10.0813 3.7352 16.6406 3.7658 6.56-.0306 12.1167-1.276 16.6416-3.7658 4.524-2.5204 7.9248-6.1647 10.2634-10.9316s3.5226-10.5372 3.5226-17.37V83.8526c0-6.833-1.1838-12.6327-3.5226-17.3997s-5.7395-8.3817-10.2634-10.902c-4.525-2.4897-10.0816-3.7352-16.6416-3.7658-6.56.0306-12.116 1.276-16.6406 3.7658-4.525 2.5205-7.926 6.134-10.2648 10.902s-3.5215 10.5668-3.5215 17.3997v66.3214zm103.8554-22.2286h9.1v23.504c0 3.0068-.425 5.4363-1.2763 7.258s-2.034 3.1283-3.583 3.9476-3.4 1.2148-5.527 1.184c-2.125.0307-3.977-.3637-5.5258-1.184s-2.7332-2.125-3.5843-3.9476-1.275-4.25-1.275-7.258V82.578c.0308-4.525.9717-7.7442 2.7932-9.718 1.8534-1.943 4.3738-2.9147 7.592-2.8544 3.2193-.0603 5.7397.9113 7.5918 2.8544 1.8228 1.9738 2.7637 5.193 2.7945 9.718v13.6645h18.9483V83.853c0-6.8328-1.124-12.6327-3.3703-17.3997s-5.5872-8.3816-10.0214-10.902c-4.434-2.4897-9.9292-3.7352-16.4893-3.7658-6.5593.0306-12.0556 1.276-16.4885 3.7658-4.4342 2.5204-7.7748 6.134-10.0213 10.902s-3.3704 10.567-3.3704 17.3997v66.3215c0 6.8328 1.1227 12.602 3.3704 17.37s5.587 8.4112 10.0213 10.9316c4.433 2.4897 9.9292 3.735 16.4885 3.7658 6.56-.0307 12.0552-1.276 16.4893-3.7658 4.4342-2.5204 7.7738-6.1647 10.0214-10.9316s3.3703-10.5373 3.3703-17.37v-40.4492h-28.0583v18.22zm40.997 52.8386h20.04V53.243h-20.04zm62.8553 0h20.0488V53.243h-20.0488zm77.437 0h20.59V53.243H2543.58v76.3414h-.37l-20.2188-76.3414h-25.1462v127.54h18.0403V88.4082h.3596zm55.03-109.32h32.9714v-18.22h-53.0205v127.54h20.05v-52.6558h25.8655v-18.22h-25.8655zm61.0358 11.1147c.0308-4.525.9714-7.7442 2.793-9.718 1.8535-1.943 4.374-2.9147 7.592-2.8544 3.22-.0603 5.7398.9113 7.592 2.8544 1.8227 1.974 2.7634 5.1932 2.794 9.718v68.8712c-.0305 4.525-.9712 7.7442-2.794 9.718-1.8523 1.943-4.373 2.9147-7.592 2.8545-3.218.0602-5.7385-.9114-7.592-2.8545-1.8216-1.974-2.7622-5.193-2.793-9.718V82.5777zm-20.0415 67.5963c0 6.8328 1.1838 12.602 3.5215 17.37s5.7395 8.4112 10.2644 10.9316c4.525 2.4897 10.0818 3.7352 16.6406 3.7658 6.56-.0306 12.1167-1.276 16.642-3.7658 4.5236-2.5204 7.9248-6.1647 10.2634-10.9316s3.5227-10.5372 3.5227-17.37V83.8526c0-6.833-1.184-12.6327-3.5227-17.3997s-5.7398-8.3817-10.2634-10.902c-4.5252-2.4897-10.0816-3.7352-16.642-3.7658-6.5588.0306-12.1155 1.276-16.6406 3.7658-4.525 2.5205-7.926 6.134-10.2644 10.902s-3.5215 10.5668-3.5215 17.3997v66.3214zm136.0973 30.6c-.9717-2.3386-1.5793-4.7374-1.8523-7.1965-.2432-2.46-.3647-5.2237-.334-8.2908v-19.678c.0308-4.4328-.3955-8.442-1.2146-11.9646-.85-3.5522-2.2478-6.5896-4.19-9.1s-4.585-4.4943-7.8953-5.8908v-.3648c4.4636-2.0954 7.743-5.2533 9.8997-9.5043s3.2182-9.626 3.2182-16.186V82.578c.03-6.56-1-12.026-3.0962-16.3678-2.066-4.343-5.2844-7.592-9.657-9.7475-4.403-2.157-10.052-3.2193-16.9448-3.2193h-30.245v127.5403h20.0417v-51.9273h6.9236c3.0364-.0307 5.5274.516 7.44 1.5795 1.9428 1.0625 3.3703 2.7932 4.312 5.1624.9116 2.3988 1.366 5.5567 1.366 9.4737v20.0428c0 2.5806.0617 4.7067.1218 6.377.0908 1.6692.2124 3.0363.3955 4.1294.15 1.0625.334 2.0045.576 2.7943a36.045 36.045 0 0 0 .7295 2.3681h20.4065zM2740.35 71.4636c3.5224-.0307 6.134 1.033 7.7734 3.1283 1.64 2.125 2.4605 5.4658 2.4297 9.9895V97.154c0 3.3704-.4863 6.043-1.458 8.017s-2.3374 3.4-4.1296 4.25c-1.792.8205-3.9475 1.2455-6.4373 1.2147h-7.835v-39.173h9.6568zm71.2426-18.2206h-27.8748v127.54h17.4905V90.5946h.3696l14.572 90.1894h18.9495l13.4827-91.4656h.3598v91.4656h18.9495V53.243h-27.8748l-13.4824 90.5535h-.36zm115.336 0h-29.3345l-20.4065 127.5403h18.402l3.4626-23.1393h24.596l3.4625 23.1393h20.2246L2926.9275 53.243zm-15.852 22.5927h.3648l9.4736 64.4998h-19.313l9.4746-64.4998zm42.997 8.017c0 3.6135.334 7.0453 1.0933 10.294.7283 3.25 1.943 6.4385 3.644 9.5964 1.7002 3.1272 3.9478 6.3158 6.8023 9.5953 2.824 3.2806 6.3464 6.742 10.5066 10.4168 4.3418 3.7953 7.7737 7.1964 10.2632 10.2032 2.5217 3.0363 4.282 5.95 5.3454 8.7453 1.032 2.7636 1.5488 5.6783 1.5183 8.7452 0 3.0376-.425 5.4363-1.275 7.258s-2.0354 3.1283-3.5842 3.9476-3.4 1.2147-5.526 1.184c-2.1258.0307-3.9783-.3635-5.527-1.184s-2.733-2.125-3.583-3.9476-1.276-4.2203-1.276-7.258v-9.1h-18.9485v7.835c0 6.8328 1.1238 12.602 3.3706 17.37s5.5872 8.4112 10.02 10.9315c4.433 2.4897 9.9294 3.7352 16.4895 3.766 6.56-.0307 12.0554-1.2762 16.4885-3.766 4.434-2.5204 7.7747-6.1647 10.0213-10.9315s3.3703-10.5373 3.3703-17.37c.0308-3.6136-.334-7.0453-1.093-10.294-.7283-3.2794-1.943-6.468-3.6443-9.5964s-3.9477-6.3158-6.802-9.5952c-2.824-3.2807-6.316-6.742-10.5066-10.417-4.342-3.7953-7.774-7.1964-10.2636-10.2327-2.5203-3.0068-4.2818-5.9214-5.3453-8.7157-1.0317-2.7636-1.5478-5.7-1.5183-8.7454.0308-4.5248.88-7.744 2.6116-9.718 1.7317-1.943 4.1907-2.9147 7.4-2.8545 3.2193-.0602 5.6785.9114 7.4092 2.8545 1.7314 1.9738 2.5815 5.193 2.6123 9.718v5.284h18.9482v-4c0-6.833-1.1237-12.6328-3.3-17.3997-2.217-4.768-5.526-8.3816-9.8997-10.902-4.3725-2.4898-9.8076-3.7352-16.3064-3.766-6.4987.0307-11.9338 1.2762-16.3078 3.766-4.3726 2.5204-7.6826 6.134-9.8985 10.902-2.1865 4.767-3.3 10.5668-3.3 17.3997zm70.7007 96.9312h20.04V53.243h-20.04zm-1668.7147 24.2326h-23.6127V307.05h16.0338v-38.335h7.58c8.0168-.0236 13.9926-2.1863 17.9768-6.4858 3.9608-4.3005 5.9275-10.543 5.9275-18.73V230.234c0-8.187-1.9667-14.4306-5.9275-18.73-3.9842-4.3007-9.96-6.4622-17.9768-6.487zm0 14.5758c1.7-.0236 3.1343.268 4.3006.8748 1.1898.583 2.0647 1.603 2.6715 3.0127s.8996 3.3278.8996 5.7326v15.3053c0 2.4047-.2917 4.3242-.8996 5.7326s-1.4817 2.406-2.6715 3.0127c-1.1663.608-2.5995.8996-4.3006.8748h-7.58v-34.5454h7.58zm46.0645 8.8912c.0247-3.6195.7778-6.1942 2.2358-7.7737 1.4816-1.5548 3.498-2.3327 6.0726-2.2832 2.576-.0495 4.5922.7284 6.0738 2.2832 1.4578 1.5795 2.21 4.1542 2.2347 7.7737v55.097c-.0236 3.6195-.777 6.1954-2.2347 7.7738-1.4816 1.5546-3.4978 2.3326-6.0738 2.2842-2.5747.0484-4.6-.7296-6.0726-2.2842-1.458-1.5784-2.21-4.1543-2.2358-7.7738v-55.097zm-16.0327 54.077c0 5.4658.9468 10.0816 2.818 13.896s4.6 6.73 8.2104 8.7453c3.6194 1.9915 8.0653 2.9878 13.3127 3.0126 5.2475-.0248 9.6933-1.02 13.3128-3.0126 3.6194-2.0164 6.3405-4.93 8.2116-8.7453s2.818-8.43 2.818-13.896v-53.057c0-5.4658-.948-10.1052-2.818-13.9195s-4.5922-6.7053-8.2116-8.7216c-3.6194-1.9915-8.0653-2.988-13.3128-3.0115-5.2474.0236-9.6932 1.02-13.3127 3.0115-3.6194 2.0163-6.3405 4.9074-8.2104 8.7216s-2.818 8.4537-2.818 13.9195v53.057zm59.0287 24.4874h42.4165v-14.576H1461.15v-87.4555h-16.03zm49.4126 0h16.0313V205.0166h-16.0313zm23.0284-87.4564h16.7708v87.4564h16.03v-87.4564h16.7607v-14.575H1517.56zm72.5887 0h27.6946v-14.575h-43.7257V307.048h43.7257v-14.576h-27.6946v-29.8815h22.018v-14.576h-22.018zm74.1988 87.4564h16.4608l-22.2974-56.5547 22.2974-45.4767h-16.03l-20.6985 44.1645h-.3v-44.1645h-16.03V307.048h16.03v-31.3376l4.9574-9.33zm58.008 0h16.47V205.0166h-14.2822v61.073h-.3l-16.18-61.073h-20.12V307.048h14.432v-73.9h.3zm27.9843 0h16.03V205.0166h-16.03zm64.2844 0h16.4708l-22.3076-56.5547 22.3076-45.4767h-16.04l-20.6986 44.1645h-.2897v-44.1645h-16.03V307.048h16.03v-31.3376l4.9573-9.33zm80.6054 0h16.4707V205.0166h-14.292v61.073h-.2896l-16.1813-61.073h-20.11V307.048h14.4323v-73.9h.2896z"/><use xlink:href="#B"/><path d="M2000.9 264.7775h7.2873v18.8033c0 2.4047-.3402 4.35-1.02 5.8057s-1.628 2.5028-2.8664 3.16-2.72.9716-4.422.9468c-1.7.0248-3.183-.2915-4.42-.9468s-2.1862-1.7-2.8664-3.16-1.02-3.4-1.02-5.8057v-55.097c.025-3.6196.778-6.1942 2.236-7.7737 1.4816-1.5548 3.498-2.3328 6.0727-2.2832 2.5758-.0496 4.592.7284 6.0737 2.2832 1.458 1.5795 2.21 4.154 2.2347 7.7737v10.9315h15.16v-9.9117c0-5.4657-.8983-10.1052-2.6964-13.9194s-4.4706-6.7054-8.0168-8.7217c-3.5463-1.9915-7.9437-2.9878-13.19-3.0115-5.2473.0236-9.6448 1.02-13.19 3.0115-3.5473 2.0163-6.2188 4.9074-8.0168 8.7217s-2.6963 8.4536-2.6963 13.9194v53.0572c0 5.4657.8982 10.0816 2.6963 13.896s4.4695 6.73 8.0168 8.7452c3.5463 1.9916 7.9438 2.988 13.19 3.0127 5.2474-.0248 9.6448-1.02 13.19-3.0127 3.5462-2.0163 6.22-4.93 8.0168-8.7452s2.6964-8.43 2.6964-13.896v-32.3592H2000.9v14.5758zm48.834-45.186h27.6947v-14.575h-43.736V307.048h43.736v-14.576h-27.6947v-29.8815h22.0075v-14.576h-22.0075zm87.4516 87.4564c-.7782-1.8712-1.2632-3.7895-1.4817-5.7574-.195-1.968-.2917-4.18-.2682-6.632v-15.7422c.025-3.5463-.315-6.7538-.9713-9.5717-.68-2.8426-1.798-5.27-3.3527-7.2873s-3.6677-3.596-6.316-4.7138v-.2916c3.5712-1.675 6.1943-4.2026 7.9192-7.6036s2.5757-7.7005 2.5757-12.948v-8.017c.0235-5.2474-.8017-9.62-2.478-13.0942-1.653-3.473-4.2275-6.0726-7.7253-7.7973-3.5227-1.7248-8.0417-2.576-13.556-2.576h-24.1958v102.0325h16.034v-41.5412h5.5387c2.4285-.0248 4.4213.4132 5.9512 1.2632 1.5548.85 2.6963 2.2347 3.4495 4.1294.7296 1.9194 1.093 4.4458 1.093 7.58v16.0326c0 2.066.0497 3.766.098 5.1022.0732 1.3363.17 2.4295.3153 3.3043.1215.85.2678 1.603.4617 2.2347a28.244 28.244 0 0 0 .583 1.8947h16.3252zm-26.0907-87.4562c2.818-.0237 4.9062.8264 6.2188 2.5027 1.312 1.7 1.968 4.3726 1.943 7.992v10.058c0 2.6963-.3883 4.8342-1.166 6.4137s-1.87 2.72-3.3032 3.4c-1.434.6552-3.1592.995-5.1505.9715h-6.2674v-31.34h7.7253zm34.8358 87.4562h16.03V205.0166h-16.03zm45.9145 0l3.7644.2432 3.9608.0483c3.06.0248 5.95-.3647 8.697-1.1415 2.7693-.778 5.2-2.138 7.3606-4.0326 2.1377-1.8948 3.8377-4.52 5.0772-7.8718 1.2384-3.3278 1.8713-7.5305 1.8946-12.608V205.016h-16.0337v77.836c-.0234 2.5995-.4367 4.6158-1.2384 6.0242-.826 1.4332-1.9193 2.406-3.3042 2.9643-1.3598.5347-2.9147.8016-4.6393.7767-.8748 0-1.798 0-2.7696-.0235-.948 0-1.87-.0484-2.7693-.1216v14.5758z"/><use xlink:href="#B" x="310.318"/><path d="M2309.33 205.0166h-22.3077V307.048h13.9923v-72.15h.3l11.6535 72.15h15.1615l10.784-73.1704h.3v73.1704h15.1615V205.0166h-22.2973l-10.784 72.4418h-.3zm80.895 0h-24.1958V307.05h25.216c8.0415-.025 14.0906-2.0896 18.1965-6.1954 4.08-4.1046 6.1456-10.1052 6.1456-18.0005v-8.3085c.0483-5.4174-.8747-9.96-2.7448-13.6527-1.87-3.67-4.9557-6.3653-9.2077-8.0653v-.2915c3.5473-1.6515 6.1704-4.18 7.8466-7.5305s2.5264-7.6533 2.503-12.876v-3.6442c.0235-5.2474-.8017-9.62-2.4778-13.0943-1.653-3.473-4.2276-6.0726-7.7257-7.7973-3.5224-1.7247-8.0415-2.576-13.5557-2.576h0zm-1.02 56.1182c2.4294-.0248 4.3964.34 5.9274 1.0932 1.53.7767 2.648 2.0647 3.3526 3.8626.7283 1.8215 1.0683 4.2994 1.0683 7.4337v8.8904c0 2.5028-.3153 4.4943-.9468 5.977s-1.5795 2.5263-2.8176 3.158c-1.215.6316-2.7463.9467-4.544.923h-9.1823v-31.338h7.1423zm.5833-41.5424c2.8176-.0236 4.9062.8264 6.2188 2.5028 1.3116 1.6998 1.968 4.3726 1.943 7.992v5.6854c0 2.6962-.3884 4.8342-1.1664 6.4126s-1.8697 2.72-3.303 3.4c-1.4344.6564-3.16.9963-5.1507.9728h-6.2674v-26.9666h7.7256zm51.4485-.0008h27.6948v-14.575h-43.7258V307.048h43.7258v-14.576h-27.6948v-29.8815h22.0078v-14.576h-22.0078zm87.4617 87.4564c-.778-1.8712-1.2635-3.7895-1.4817-5.7574-.1946-1.968-.2915-4.18-.268-6.632v-15.7422c.0247-3.5463-.3154-6.7538-.9716-9.5717-.68-2.8426-1.798-5.27-3.3528-7.2873s-3.6677-3.596-6.3157-4.7138v-.2916c3.57-1.675 6.194-4.2026 7.92-7.6036s2.5756-7.7005 2.5756-12.948v-8.017c.0237-5.2474-.8015-9.62-2.4777-13.0942-1.6526-3.473-4.2276-6.0726-7.7254-7.7973-3.5227-1.7248-8.0417-2.576-13.556-2.576h-24.1958v102.0325h16.034v-41.5412h5.54c2.4284-.0248 4.42.4132 5.95 1.2632 1.555.85 2.6963 2.2347 3.4494 4.1294.7298 1.9194 1.0933 4.4458 1.0933 7.58v16.0326c0 2.066.0496 3.766.098 5.1022.0732 1.3363.17 2.4295.3152 3.3043.1216.85.268 1.603.4617 2.2347.17.6315.3647 1.263.583 1.8947h16.3257zm-26.0906-87.4562c2.8178-.0237 4.9062.8264 6.22 2.5027 1.3115 1.7 1.9677 4.3726 1.943 7.992v10.058c0 2.6963-.3884 4.8342-1.1665 6.4137s-1.87 2.72-3.303 3.4c-1.4343.6552-3.1592.995-5.1506.9715h-6.2674v-31.34h7.7254z"/></g></g></g><defs ><path id="B" d="M1939.245 219.5916h27.6947v-14.575h-43.7258V307.048h43.7258v-14.576h-27.6947v-29.8815h22.0078v-14.576h-22.0078z"/></defs></svg>