<svg xmlns="http://www.w3.org/2000/svg" width="3046" height="360" stroke="none" stroke-linecap="round" stroke-linejoin="round" fill="#fff" fill-rule="evenodd"><path d="M241.6793 167.8383c-13.2726.4355-27.5544 3.3668-37.832 12.3693-4.9477 4.3338-7.7762 9.1078-9.7452 15.3562-2.1167 6.7195-3.0705 14.5795-3.6265 21.5953-.3035 3.8272-.5088 7.4798-1.2066 11.2728-.76 4.1235-6.4266 3.9228-6.0194 7.4537.2538 2.2017.092 4.6205 5.074 10.4075 1.6562 2.8108 4.1897 4.1885 7.253 5.251 5.212 1.8062 17.2745 1.9584 22.5597.5112 5.6382-1.5453 11.9103-5.2344 16.8637-8.365 6.1138-3.864 13.4095-11.7367 18.8116-18.7786s11.1016-14.2925 21.2953-18.0736c3.701-1.373 6.0182-1.3577 9.9116-1.556 1.8345-.0945 5.0195.294 7.0122.6835s2.5287.5395 4.428 1.1156l2.989.8582c.2834.0614-.2008-1.4992-.8122-3.3963s-1.5158-3.8615-2.1307-5.4812c-.967-3.1496-1.929-4.2014-3.4626-7.0536-1.616-3.01-3.1838-4.7527-5.5247-7.318-2.0423-2.2383-4.0728-4.2805-6.501-6.1104-4.335-3.2664-10.607-6.4207-16.84-8.2612s-14.9666-2.727-22.4982-2.4802z" fill="#0e9146"/><path d="M176.6823 248.3706c-.1723-3.453 4.8874-3.4624 5.0337-.373.1558 3.297-4.8838 3.388-5.0337.373zm1.838 3.4447l-.176 10.548c-2.5794-3.3986-9.3615-13.1815-7.829-18.1717l2.9665-6.1433c2.1202-.033 10.3036-.3695 11.6682.2513 2.1804.9917 3.4826 5.5048 3.0293 8.6332l-8.325 15.4022-.0047-10.8017c1.2242-.8288 2.7258-1.379 2.6456-3.5452-.144-3.93-6.416-4.0515-6.5566.0308-.092 2.6915 1.7093 2.2395 2.5818 3.7965zm-8.4655-2.6112l-37.7092-1.0094c13.571-1.681 15.5864-16.4718 21.96-18.279 1.2018-.3412 6.8848.366 8.9295.4274 2.6786.0826 2.734 1.0246 5.795 4.1683 1.8912 1.943 3.937 2.5995 1.9998 5.9948-1.6398 2.8722-1.4426 5.2957-.975 8.698zm22.1017-20.3745c2.2535.0554 4.3678.2265 6.6415.151 1.8606-.0614 4.6087-.6045 6.115-.5633 3.2523.0887 5.3985 3.8652 7.0217 6.4303l14.9725 11.94c-1.1286.9432-2.537 1.53-3.8792 2.0883-7.495 3.12-17.9356 5.1235-25.6 2.008l-8.2412-4.0457c-.3116-2.249-.0437-3.446-.929-5.5318-2.0387-4.8084-4.2297-3.929.6116-8.98 1.1805-1.2313 2.2654-2.2383 3.277-3.498zm-18.6-31.474l1.5134-.0294 9.5692.0023-.0035 39.9452-11.079-.0225v-39.8956zm-64.3358 33.0013c16.0232-.0968 20.6932-6.109 27.8802-6.9933 1.825-.2243 2.83.9868 4.747 1.9596l10.0863 3.9123c-6.205 5.56-9.521 17.1482-20.5293 17.5058-5.533.1795-20.6402-13.6832-22.1843-16.3844zm98.9-2.5156c3.348-1.505 6.33-2.0293 9.62-3.7848 4.6867-2.5002 4.0103-2.8757 9.7027-.517l21.8088 5.428c-1.1746 2.3528-16.0457 16.4658-20.98 16.414-10.7922-.1122-13.8674-11.836-20.1526-17.5402zm-120.2993-17.029c1.23-.6564 5.5354-1.7343 7.4006-2.498 10.7215-4.3902 15.4435-10.4098 23.085-1.9 3.1744 3.531 3.7482 3.7457 7.246 6.919 4.911 4.454 7.0582 5.6772 10.3212 8.547l-13.216 5.088c-2.8638.9114-13.2607 3.276-15.735 1.163l-4.5426-4.6442c-3.8154-4.0835-9.711-9.9482-14.5593-12.6645zm135.7997 9.5644c4.3797-2.825 6.736-5.2627 10.1277-8.6106 11.6517-11.4995 11.0343-13.8948 22.843-7.801 7.325 3.78 10.36 4.1154 12.9502 5.37-8.6343 6.8505-6.8718 5.9214-13.942 12.7885-3.4743 3.375-3.3137 8.685-19.4113 3.394-1.6656-.5477-11.7284-4.5592-12.5677-5.14zM61.0165 207.743c1.033-1.248 3.5048-3.2346 5.0726-4.4518 9.5173-7.389 21.327-15.068 34.1417-10.202 3.9205 1.4887 9.463 5.1 11.3814 7.4337l-24.0483 8.5942c-2.6455.4792-3.825-.647-6.115-1.451-8.5457-2.9962-12.883-1.4544-20.4323.0767zm186.1588-9.3084c3.2086-1.7035 5.2603-4.728 11.4132-6.997 9.6472-3.558 19.4466 1.11 26.962 6.532 1.4803 1.067 8.8502 6.7538 9.8148 8.3285l-14.2017-1.3847c-4.2203.6564-8.117 3.591-12.0625 2.649-7.7147-1.8428-13.877-6.7726-18.88-7.926-.275-.0625-1.472-.2773-1.5417-.2998-.837-.2785-.1465-.0095-.909-.4332l-.595-.4687zM58.277 207.7714c.9952-10.536 7.795-18.513 14.2558-24.824 4.1862-4.0894 7.8965-6.1505 13.5724-3.2736 3.0175 1.5287 7.3712 7.651 9.0616 10.5183l-21.3803 5.8637c-4.0822 1.7153-14.4507 11.13-15.5095 11.7154zm204.6125-18.9744c1.57-2.995 5.683-9.0806 8.8527-10.6117 2.106-1.0176 6.1115-1.6634 8.0217-.4474 7.645 4.866 17.5814 17.6156 18.3783 28.78l-6.9568-6.1447c-8.0678-6.402-16.6146-12.204-28.2958-11.5772zM110.806 176.3567c3.2912-.4133 6.3323-.8406 9.503-1.464 4.7174-.929 6.6133-1.851 8.9956-.1535 4.8603 3.4637 8.2577 5.4374 10.9423 10.8714 3.165 6.4055 2.596 11.7615 1.687 19.3226-1.1 9.1597-1.0353 10.7002.9728 19.0725l-12.2574-8.1267c-1.6527-1.288-9.7652-8.5375-10.078-9.6968-.6622-2.4506 2.0895-13.609-7.6213-26.963-.6942-.955-1.634-1.8333-2.144-2.8627zm-28.5237-.0544c.824-.673 4.669-2.4437 5.6334-2.8426 2.0495-.8465 5.0232-2.1486 7.2674-2.44l9.49 5.023c2.6632.393 3.826-.012 5.3678 1.8723.843 1.0305 2.2476 2.923 3.055 4.225 3.6856 5.9356 6.7868 14.0565 5.9262 22.8205-6.043-5.3087-11.3295-10.8252-19.0193-13.5617-3.7646-1.34-2.681-1.111-4.7173-3.6985-4.047-5.146-5.5414-9.836-13.726-10.6896l.7237-.7095zm157.4497 24.6114c-.3234-7.3547 2.943-15.8095 6.1447-20.652 7.6178-11.5217 4.0208-.268 16.061-10.8867l14.2098 5.9474c-5.5472 1.93-6.9344 1.6622-10.2303 6.2248-3.3208 4.598-3.7754 7.0253-7.6438 8.423-4.0386 1.4603-7.5282 3.7588-10.0876 5.9935l-8.3415 7.573-.1122-2.623zm-22.8653 21.7415c4.7208-13.2667-2.942-25.381 2.275-37.7624 2.42-5.742 6.1185-7.932 10.517-11.2844 1.713-1.3057 1.6457-1.1464 4.0245-.7332 5.3382.9255 8.1892 1.7932 14.1273 2.0553-1.3623 1.8557-2.596 3.3975-3.753 5.4292-1.0517 1.8475-2.0742 3.702-2.937 5.8506-1.7578 4.3727-2.9053 9.535-2.9053 14.7034l-3.297 7.8055c-1.9302 1.9042-3.3314 3.1107-5.4918 5.2144-2.6738 2.603-8.9436 7.1622-12.5594 8.7216zm-53.6014 6.1812c-4.715.0047-16.33-1.2384-18.2755-4.3573-3.342-5.3583-2.243-13.4225-1.4686-19.965.8937-7.541 1.3163-13.0788-1.897-19.5138-3.806-7.62-9.5657-9.4063-10.9067-11.3648l17.6392 5.0078c3.8532 2.538 7.6095 7.03 9.9152 12.2726 3.904 8.8763 4.7527 19.1042 3.995 29.056-.751 9.8513-1.2786 5.1305.9986 8.8645zm30.7643-1.4248c.0473-.1028.1334-.2208.1807-.287.9562-1.3138.9443-.8534 1.25-1.5913.328-.792-.4297-5.656-.5466-7.3782-1.523-22.5278 5.1624-47.0602 33.8973-45.96l-1.78 1.4792c-11.5254 8.6237-12.3434 15.9393-10.562 31.058.601 5.1046 1.4473 16.7468-2.538 19.3688-4.178 2.747-14.288 3.498-19.9024 3.3114zm82.5947-53.4374c-3.93-2.2737-8.8833-4.65-13.859-6.0348l-6.886-21.6566c.156 4.7646 2.557 9.2352.4026 14.5298-1.7932 4.408-6.828 4.5024-12.327 4.1094-11.7745-.843-23.0024-8.744-40.3278 2.1674-6.083 3.8307-12.8758 10.5243-16.1317 16.788-2.3232 4.4694-2.6267 6.8836-4.218 11.85l-9.5492.0708c-3.5167-8.7925-4.7456-14.2134-11.8512-20.7228-4.9924-4.572-11.614-9.784-20.9365-11.582-11.9326-2.302-18.0713 2.027-28.65 2.9134-17.3855 1.4568-12.1653-10.4805-11.4794-18.6416-6.128 9.057-9.797 11.8537-6.8812 21.9258l-13.7777 5.9522c-11.3696 5.8093-23.5 20.7428-23.8606 35.53 6.2638-2.0955 10.7404-4.1177 17.6097-3.6018 6.546.4923 11.4382 3.2677 15.421 6.0006 3.4188 2.347 8.508 7.1315 11.313 10.1135l10.3306 10.7202c3.473 3.4578 6.984 6.8683 11.5738 9.8598 4.4387 2.8922 8.005 5.193 13.5842 7.4608 8.2966 3.3727 18.18 4.9192 27.1754 2.1 2.8687-.8995 4.9334-2.184 7.1775-3.002 1.2113 2.46 6.4492 12.6374 8.802 13.105 8.2943-9.45 7.0405-11.484 9.567-15.5095 5.8907 2.9677 8.659 4.9098 15.6737 5.4162 11.4214.825 23.058-4.4565 31.5764-10.6448 6.416-4.6618 11.359-9.6507 16.4848-15.2652.9326-1.0223 1.5028-1.943 2.4412-2.937.9634-1.02 1.5903-1.4815 2.4626-2.498 11.0284-12.8392 24.6645-21.6778 42.5422-12.569-2.4296-9.4477-2.7694-14.9383-7.704-21.7912-1.66-2.3078-2.7364-3.4576-4.5698-5.375-3.2205-3.368-6.4243-6.0607-11.1288-8.7806z" fill="#1f1a17"/><path d="M179.187.5l12.7568 4.152 11.9815 4.5438 13.6113 5.545 11.6356 5.251 12.3622 5.971 11.08 5.7974 13.6214 8.0347 11.5416 7.5884 12.7898 9.2812 8.923 7.1975L311.022 73.876l10.456 10.2328 18.5818 21.448 17.2144 24.4864-.006 13.4165-.6177 12.8-1.0664 14.66-1.3993 12.69-1.857 13.6035-2.0898 12.3312-3.4312 15.4383-3.65 13.3217-4.8733 15.0337-4.0877 10.712-5.9597 14.0622-6.4994 13.1077-14.655 24.3025-17.965 23.9388-12.7608 4.1417-12.3642 3.368-14.27 3.514-12.5 2.5915-13.5105 2.4377-12.3722 1.823-15.7412 1.5072-13.7974.6446-15.8022.01-11.4507-.5786-15.2135-1.3234-14.472-2.1307-27.64-6.4285-28.317-9.6907-7.8823-10.857L54 317.771l-7.7525-12.487-6.3264-11.088-6.4928-12.0983-5.5566-11.204-6.298-14.5068-4.8767-12.9238-4.892-15.0268-2.99-11.0688-3.4436-14.8807-2.446-14.424L.5 159.7867l.465-29.9284 7.8894-10.85 8.0228-9.9935 9.4795-11.2322 8.5895-9.444 9.4984-9.914 8.9376-8.7476 11.849-10.4723 10.7828-8.632 12.778-9.2977L98.3943 35l13.087-7.873 12.961-6.7832 26.1395-11.0473z" fill="#000"/><path d="M179.138 6.569l10.884 3.5415 11.7864 4.4694 13.4465 5.4776 11.4687 5.1765 12.2122 5.8968 10.867 5.6877 13.3727 7.887 11.3128 7.4385 12.562 9.116 8.7272 7.0382 11.3217 9.8338 10.1634 9.9445 18.2348 21.0473 15.9912 22.7474-.003 11.4477-.6098 12.59-1.0543 14.483-1.3773 12.509-1.835 13.4365-2.0498 12.0943-3.368 15.1567-3.578 13.0577-4.7864 14.766-3.9968 10.4762-5.8527 13.8072-6.3176 12.74-14.38 23.8478L285.6 334.525l-10.888 3.533-12.1612 3.312-14.0982 3.472-12.3212 2.5547-13.3447 2.4076-12.134 1.788-15.4556 1.479-13.5224.6327-15.5214.01-11.1978-.5647-14.9377-1.2993-14.0673-2.072L98.818 343.47l-26.3066-9.003-6.724-9.264-6.9097-10.544-7.658-12.3362-6.2367-10.93-6.4136-11.9495-5.4494-10.9898-6.1824-14.241-4.78-12.667-4.8048-14.761-2.924-10.825-3.3797-14.61-2.3776-14.0202L6.288 159.584l.432-27.8046 6.7313-9.258 7.893-9.8296 9.364-11.0968 8.4665-9.3086 9.3817-9.7925 8.7665-8.58 11.6328-10.2823 10.569-8.4607 12.5513-9.1324 9.391-6.1247 12.8488-7.73 12.598-6.593L152.5637 14.75z" fill="#fefefe"/><path d="M179.1 12.6356l9.011 2.9325 11.5906 4.395 13.2826 5.4103 11.3017 5.1022 12.0603 5.8235 10.654 5.5755 13.1247 7.742 11.084 7.2872 12.334 8.952 8.5303 6.88 11.113 9.6508 9.8705 9.6578 17.887 20.6465 14.7707 21.0094-.005 9.4778-.5976 12.382-1.0415 14.305-1.3583 12.3292-1.811 13.2686-2.01 11.8574-3.3052 14.8768-3.506 12.7938L327.37 249.5l-3.908 10.2383-5.7447 13.5524-6.1337 12.3722-14.106 23.393-15.4144 20.5416-9.014 2.9244-11.9603 3.2582-13.9244 3.429-12.1433 2.5187-13.1797 2.3777-11.8974 1.753-15.1665 1.4512-13.2498.6206-15.2405.01-10.945-.5527-14.662-1.2743-13.6624-2.0128-26.6038-6.1876-24.2972-8.3145-5.5674-7.6697-6.795-10.3692-7.5636-12.1844-6.1468-10.772-6.3335-11.8025-5.343-10.773-6.068-13.9782-4.6843-12.4102-4.7185-14.493-2.857-10.5812-3.3183-14.34-2.308-13.6154-2.3363-27.218.4-25.6806 5.572-7.6658 7.762-9.6656 9.2494-10.96 8.344-9.174 9.2646-9.672 8.5954-8.4 11.418-10.0923L83.0358 59.77l12.3235-8.967 9.18-5.9865 12.611-7.587 12.235-6.4032 25.1602-10.6342z" fill="#006cb1"/><path d="M186.5668 244.105c-1.7236-2.0116-3.5297-4.394-4.4824-6.88-.5808-1.517-.6694-2.648-.85-4.2108-.098-.8525.039-1.673.458-2.4248.9078-1.6232 2.7164-2.2927 4.127-3.3598.7296-.5548 1.2762-1.164 1.4485-2.0978.6776-3.6797.8914-7.4018 1.1876-11.124.575-7.2484 1.4993-14.9667 3.689-21.915 2.0447-6.4882 5.0266-11.5042 10.1714-16.0114 10.5397-9.2328 25.0943-12.2785 38.7374-12.726 2.721-.0898 5.4565-.0342 8.1728.1405 4.8767.314 10.0887 1.0105 14.7824 2.3976 5.944 1.7554 12.36 4.7717 17.2992 8.4938 2.4767 1.864 4.616 4.008 6.6995 6.291 2.2937 2.5122 4.1035 4.5805 5.7314 7.6084.6174 1.15 1.2903 2.2726 1.903 3.4236.6658 1.2525 1.1924 2.504 1.6527 3.845.6375 1.8593 1.53 3.6207 2.138 5.5072.256.7944.5206 1.5984.7377 2.406.2563.9526.5065 2.1956-.6468 2.74-.38.1783-.68.169-.961.1075-1.0142-.221-2.1097-.5868-3.1014-.8878-.694-.21-1.388-.424-2.0905-.6033-.725-.1865-1.4604-.333-2.1958-.4768-1.033-.202-2.0896-.3543-3.1355-.471-1.1286-.1276-2.3905-.2456-3.525-.1877-1.6527.0838-3.3385.124-4.9806.3353-1.57.203-3.0173.5808-4.5012 1.132-9.4028 3.4884-14.759 9.915-20.652 17.598a123.28 123.28 0 0 1-5.9769 7.2118c-2.0942 2.3374-4.3 4.6075-6.6062 6.7277-2.047 1.871-4.2557 3.6974-6.604 5.1813-5.1717 3.27-11.3387 6.9155-17.253 8.5375-1.6858.4615-3.5404.687-5.2806.8312-2.132.1758-4.2863.2254-6.4255.1853s-4.304-.1736-6.4314-.4416c-1.7424-.2196-3.616-.5383-5.278-1.1143-3.3184-1.15-6.101-2.6963-7.958-5.768z" fill="#000"/><path d="M241.1006 164.8c-13.2725.4367-27.5544 3.3668-37.832 12.3695-4.9475 4.3336-7.776 9.1076-9.7452 15.357-2.1167 6.7184-3.0705 14.5783-3.6265 21.5942-.3034 3.827-.5088 7.4797-1.2065 11.2727-.76 4.1235-6.4267 3.9228-6.0195 7.4537.254 2.2017.0922 4.6206 5.074 10.4087 1.6562 2.8097 4.1896 4.1872 7.253 5.2497 5.212 1.8062 17.2746 1.9598 22.5597.5113 5.6382-1.5454 11.9102-5.2345 16.8637-8.3653 6.114-3.8637 13.4094-11.7354 18.8115-18.7784s11.1016-14.2913 21.2953-18.0737c3.701-1.373 6.0183-1.3576 9.9116-1.556 1.8345-.0933 5.0195.294 7.0123.6835s2.5287.5395 4.428 1.1156 2.707.797 2.99.8582-.2006-1.498-.812-3.3964-1.5157-3.8614-2.1308-5.48c-.967-3.1485-1.93-4.2004-3.4624-7.0536-1.6163-3.0092-3.184-4.7528-5.525-7.3168-2.0423-2.2383-4.0728-4.2817-6.501-6.1116-4.335-3.2654-10.607-6.421-16.839-8.2612s-14.9666-2.727-22.4982-2.4803z" fill="#0e9146"/><g fill="#000"><path d="M187.823 225.6212c.6753.7177.79.4675 2.204.4675l1.831-.1263c1.1003-.0414 2.9088.138 3.898-.0202.7307-.1168 1.1108-.0837 1.8665-.0932 1.4177-.0177 4.918-1.0022 5.7656-.7638.2338.066.4957.177.719.269 4.7008 1.9243 9.0935 12.0625 13.9585 15.3067 4.3042 2.8698 6.3133 2.8628 11.5017 4.1483l.385-.608c-.57-.9728-.667-.6635-1.7083-.9846-5.3112-1.6386-4.9452-.687-9.8844-3.9512-2.9207-1.9302-6.788-8.9813-9.9364-12.1038-.4605-.4557-.7615-.968-1.2856-1.4083l-1.5607-1.256c.5-.2242 1.3246-.3778 1.883-.5654l1.8074-.6422c1.027-.359 2.557-.993 3.5333-1.4864l6.4787-3.4388c.6044.0318 1.4863.2668 2.1048.365 6.5448 1.0375 14.3822 5.671 21.292 6.3806l9.5586.4817.3813-.746-.4215-.562c-1.629-.1912-3.943.0484-5.6086-.1463-.922-.1075-1.9573-.0555-3.3727-.3-6.9627-1.2006-11.706-3.466-18.2142-5.6618-1.2408-.418-2.5558-.6634-3.8403-.935.2457-.386.9716-.765 1.4155-1.092.8418-.6186 8.8503-8.012 9.4194-8.58l5.1423-5.1435c.8582-.8594 1.83-1.5866 2.6928-2.4484l2.6336-2.5098c1.438-.1688 3.027-.0472 4.368.2232 3.309.6657 7.102 2.4223 10.2563 3.701l13.276 5.369.5962-.3848c0-1.1676-.967-1.2113-2.7306-1.923l-3.2854-1.367-13.329-5.2817c-2.9454-1.2136-4.5144-1.5275-7.5802-1.746 1.066-1.353 4.1508-3.4188 5.5992-4.5214 1.6646-1.2655 5.0208-2.7837 6.978-3.3078 5.4953-1.471 7.776-1.3742 13.2713-.001 3.8898.9715 7.4078 2.5782 11.0354 4.3914 1.1783.5902 2.2206 1.2065 3.348 1.7956 2.4365 1.2714 7.233 4.5603 9.1324 6.2945.902.8228 1.8286 1.59 2.6915 2.452 1.334 1.3328 1.058 1.2136 2.688 2.504l.465-.4923v-.1463c-.0495-.4628-.2267-.6576-.5808-1.0094-.902-.8984-1.7424-1.9585-2.6915-2.818-3.8167-3.454-8.2542-6.6652-12.9303-8.9873-3.603-1.7896-6.219-3.1685-10.1063-4.4646-2.8522-.9505-5.944-1.726-8.952-1.9456-1.1604-.085-2.3918.0414-3.5522.124.98-1.4993 1.9255-3.0623 2.8652-4.604.9892-1.6232 1.8498-2.9737 3.2263-4.3656 1.072-1.085 3.2723-2.3244 4.7787-2.6892 1.1085-.269 2.1827-.32 3.284-.5123 1.746-.3058 1.282-.0414 2.9927-.798l.0177-.4-.4226-.4357c-.556-.2762-6.369.8063-7.1457 1.1168-5.2427 2.0872-7.2814 6.3772-10.038 10.901-.5915.9703-.9197 2.0493-1.9822 2.303-5.9355 1.413-8.9328 3.8437-13.5168 7.4196l-6.5885 6.024c0-3.3608-.0212-6.468.5183-9.6448.668-3.9357 1.9065-7.8894 3.892-11.2916 1.0885-1.8652 4.9818-7.108 6.375-9.0746l-.6128-.6128c-.9597.262-4.1034 4.9263-4.8093 5.9865-1.6552 2.485-2.8062 3.8945-3.9666 6.8092-1.3434 3.374-1.825 6.1387-2.4508 9.672-.4025 2.2748-.1593 8.5256-.2927 9.2576-.124.6823-6.5802 6.6403-7.56 7.6226-.8558.857-1.8628 1.6066-2.694 2.4495-.8086.8193-1.7306 1.6292-2.6324 2.387-.9432.7933-1.8358 1.5677-2.819 2.3243l-6.4563 3.8296c.411-1.7223 1.576-3.139 1.7118-6.8598l.125-1.9573c-.0035-.784.125-1.2727.1228-2.0813l.0047-3.1886c-.0177-.4757-.1145-.4934-.1322-.9693-.0248-.681.0354-1.4106.0095-2.0917l-.3472-6.1423c-.1982-1.243-.0223-6.847-.0248-8.547-.0023-1.236.2102-2.6715.438-3.8472.4144-2.1297 1.6327-3.937 2.865-5.7066.563-.8075 1.419-1.5713 1.962-2.3245.9126-1.2655 7.2118-6.8198 8.8468-8.3332l-.4297-.5927c-1.0802-.0295-1.308.8263-2.1 1.4084-.602.4438-1.1262.9892-1.74 1.4438-1.0578.7838-2.4436 2.04-3.3846 2.982-2.1485 2.1485-4.1293 4.18-5.7266 6.8847-2.0754 3.5167-2.079 6.382-2.079 10.535 0 1.465-.176 4.9937.0483 6.1966.1795.9633.0083 1.9845.1724 3.0116.065.4095.026 1.125.0237 1.5677l.2384 4.415c.1606 1.373.0532 3.2796-.1074 4.6536l-.138 3.0458c-.0425.3872-.1617.974-.2244 1.367-.3293 2.0647-.713 2.877-1.4826 4.7634-.5443 1.3374-.203 1.0588-1.5087 1.674-4.7363 2.2265-10.0593 3.394-15.27 3.5865l-3.0564.1274c-1.1108 0-2.0044.124-3.0598.1216-1.0342-.001-2.145-.333-2.3268.7945v.085z"/><path d="M300.08 203.1687l1.5382 4.0217-4.0178-1.1344zM171.8 244.105c1.7247-2.0116 3.53-4.394 4.4837-6.88.5795-1.517.6693-2.648.8487-4.2108.1-.8525-.0377-1.673-.458-2.4248-.9078-1.6232-2.7164-2.2927-4.1248-3.3598-.732-.5548-1.2784-1.164-1.4497-2.0978-.6776-3.6797-.8924-7.4018-1.1876-11.124-.5748-7.2484-1.5003-14.9667-3.6902-21.915-2.0435-6.4882-5.0266-11.5042-10.17-16.0114-10.54-9.2328-25.0943-12.2785-38.7375-12.726-2.7222-.0898-5.4564-.0342-8.174.1405-4.8767.314-10.0875 1.0105-14.7813 2.3976-5.945 1.7554-12.36 4.7717-17.3004 8.4938-2.4743 1.864-4.6146 4.008-6.6994 6.29-2.2926 2.5122-4.1036 4.5805-5.7303 7.6084l-1.903 3.4236c-.666 1.2525-1.1924 2.504-1.6527 3.845-.6376 1.8593-1.5312 3.6207-2.138 5.5072-.2573.7944-.5206 1.5984-.7378 2.406-.2562.9526-.5076 2.1956.647 2.74.38.1783.68.17.96.1075 1.013-.22 2.1096-.5868 3.1024-.8878.6918-.2 1.387-.424 2.0884-.6033.726-.1865 1.4615-.333 2.197-.4768 1.033-.202 2.0884-.3543 3.1355-.47 1.1273-.1276 2.3905-.2456 3.525-.1877 1.653.0838 3.3386.124 4.9807.3353 1.57.203 3.0162.5808 4.5013 1.132 9.4028 3.4884 14.76 9.915 20.6507 17.598 1.9007 2.4768 3.8958 4.8862 5.9782 7.2118 2.0942 2.3374 4.2888 4.6075 6.6062 6.7277 2.0457 1.87 4.2557 3.6974 6.6037 5.1813 5.172 3.27 11.3378 6.9155 17.2533 8.5375 1.6858.4615 3.5403.687 5.2792.8312 2.132.1758 4.2877.2254 6.4268.1853s4.3042-.1736 6.4303-.4416c1.7436-.2196 3.617-.5383 5.2792-1.1143 3.3184-1.15 6.1-2.6963 7.9567-5.768z"/></g><path d="M117.2573 164.8c13.2713.4367 27.5544 3.3668 37.832 12.3695 4.9463 4.3336 7.776 9.1076 9.744 15.357 2.118 6.7184 3.0705 14.5783 3.6278 21.5942.3033 3.827.5088 7.4797 1.2064 11.2727.76 4.1235 6.4267 3.9228 6.0195 7.4537-.254 2.2017-.092 4.6206-5.074 10.4087-1.6573 2.8097-4.1908 4.1872-7.253 5.2497-5.212 1.8062-17.2756 1.9598-22.5608.5113-5.637-1.5454-11.909-5.2345-16.8624-8.3653-6.114-3.8637-13.4107-11.7354-18.8126-18.7784S94.0238 207.583 83.829 203.8005c-3.7-1.373-6.017-1.3576-9.9117-1.556-1.8333-.0933-5.0184.294-7.0123.6835s-2.5275.5395-4.427 1.1156-2.708.797-2.9902.8582.2018-1.498.8134-3.3964 1.5157-3.8614 2.1307-5.48c.9657-3.1485 1.929-4.2004 3.4613-7.0536 1.6173-3.0092 3.1838-4.7528 5.5248-7.3168 2.0436-2.2383 4.073-4.2817 6.5012-6.1116 4.336-3.2654 10.608-6.421 16.839-8.2612s14.9677-2.727 22.4994-2.4803z" fill="#0e9146"/><g fill="#000"><path d="M170.5357 225.6212c-.6765.7177-.791.4675-2.204.4675l-1.832-.1263c-1.1002-.0414-2.9076.138-3.898-.0202-.7307-.1168-1.1096-.0837-1.865-.0932-1.418-.0177-4.918-1.0022-5.7658-.7638-.2336.066-.4957.177-.72.269-4.6996 1.9243-9.0923 12.0625-13.9573 15.3067-4.3053 2.8698-6.3146 2.8628-11.5017 4.1483l-.386-.608c.5702-.9728.667-.6635 1.7093-.9846 5.3112-1.6386 4.9452-.687 9.8846-3.9512 2.9193-1.9302 6.788-8.9813 9.9364-12.1038.4603-.4557.7613-.968 1.2855-1.4083l1.5606-1.256c-.49-.2242-1.3245-.3778-1.883-.5654-.5973-.202-1.196-.4286-1.8074-.6422-1.027-.359-2.557-.993-3.5333-1.4864l-6.4797-3.4388c-.6045.0318-1.485.2668-2.1038.365-6.5448 1.0375-14.3822 5.671-21.2917 6.3806l-9.5587.4817-.3813-.746.4202-.562c1.6304-.1912 3.944.0484 5.6086-.1463.922-.1075 1.9573-.0555 3.374-.3 6.9628-1.2006 11.706-3.466 18.2143-5.6618 1.2407-.418 2.556-.6634 3.8402-.935-.2467-.386-.9716-.765-1.4154-1.092-.8417-.6186-8.8504-8.012-9.4193-8.58l-5.1424-5.1435c-.8582-.8594-1.831-1.5866-2.694-2.4484l-2.6337-2.5098c-1.4368-.1688-3.027-.0472-4.3668.2232-3.31.6657-7.102 2.4223-10.2562 3.701l-13.2762 5.369-.5973-.3848c.0013-1.1676.968-1.2113 2.7317-1.923l3.2842-1.367 13.3305-5.2817c2.9454-1.2136 4.5142-1.5275 7.58-1.746-1.066-1.353-4.1506-3.4188-5.6003-4.5214-1.6633-1.2655-5.0208-2.7837-6.9768-3.3078-5.4966-1.471-7.7772-1.3742-13.2726-.001-3.8898.9715-7.4066 2.5782-11.0355 4.3914-1.178.5902-2.2194 1.2065-3.3467 1.7956-2.438 1.2714-7.233 4.5603-9.1337 6.2945-.902.8228-1.8286 1.59-2.6916 2.452-1.3328 1.3328-1.0578 1.2136-2.688 2.504l-.464-.4923v-.1463c.0496-.4628.2267-.6576.5797-1.0094.902-.8984 1.7435-1.9585 2.6928-2.818 3.8165-3.454 8.254-6.6652 12.93-8.9873 3.603-1.7896 6.2178-3.1685 10.1065-4.4646 2.852-.9505 5.9426-1.726 8.9507-1.9456 1.1604-.085 2.3928.0414 3.5533.124-.981-1.4993-1.9254-3.0623-2.865-4.604-.9894-1.6232-1.85-2.9737-3.2264-4.3656-1.072-1.085-3.2736-2.3244-4.7787-2.6892-1.1085-.269-2.1828-.32-3.2842-.5123-1.746-.3058-1.2832-.0414-2.9927-.798l-.0177-.4.4215-.4357c.5572-.2762 6.37.8063 7.147 1.1168 5.2414 2.0872 7.2813 6.3772 10.0367 10.901.5914.9703.9208 2.0493 1.9833 2.303 5.9355 1.413 8.933 3.8437 13.5168 7.4196l6.5885 6.024c0-3.3608.02-6.468-.5194-9.6448-.6682-3.9357-1.9066-7.8894-3.8922-11.2916-1.0873-1.8652-4.9818-7.108-6.3736-9.0746l.6115-.6128c.96.262 4.1046 4.9263 4.8106 5.9865 1.655 2.485 2.806 3.8945 3.9665 6.8092 1.3435 3.374 1.825 6.1387 2.4496 9.672.4037 2.2748.1594 8.5256.294 9.2576.124.6823 6.579 6.6403 7.56 7.6226.8546.857 1.8617 1.6066 2.694 2.4495.8086.8193 1.7306 1.6292 2.6326 2.387.943.7933 1.8344 1.5677 2.8178 2.3243l6.4562 3.8296c-.4097-1.7223-1.576-3.139-1.7118-6.8598l-.124-1.9573c.0036-.784-.1263-1.2727-.1228-2.0813l-.0047-3.1886c.0166-.4757.1146-.4934.1323-.9693.0248-.681-.0354-1.4106-.0106-2.0917l.3482-6.1423c.1983-1.243.0213-6.847.0248-8.547.001-1.236-.2102-2.6715-.4392-3.8472-.4132-2.1297-1.6315-3.937-2.865-5.7066-.562-.8075-1.4177-1.5713-1.9608-2.3245-.9125-1.2655-7.2118-6.8198-8.8468-8.3332l.4286-.5927c1.0813-.0295 1.3092.8263 2.0988 1.4084.6033.4438 1.1263.9892 1.74 1.4438 1.0578.7838 2.445 2.04 3.3858 2.982 2.1473 2.1485 4.1294 4.18 5.7267 6.8847 2.0753 3.5167 2.0788 6.382 2.0788 10.535 0 1.465.1747 4.9937-.0483 6.1966-.1795.9633-.0083 1.9845-.1724 3.0116-.065.4095-.026 1.125-.0248 1.5677l-.2373 4.415c-.1617 1.373-.0543 3.2796.1075 4.6536l.138 3.0458c.0426.3872.1618.974.2244 1.367.328 2.0647.713 2.877 1.4816 4.7634.5454 1.3374.203 1.0588 1.5097 1.674 4.7363 2.2265 10.0593 3.394 15.269 3.5865l3.0564.1274c1.112 0 2.0057.124 3.061.1216 1.034-.001 2.145-.333 2.3268.7945v.085z"/><path d="M58.278 203.1687l-1.538 4.0217 4.0172-1.1344zM179.4188 68.095c-5.7054-3.1343-8.2778-10.3342-8.2778-16.5272 0-6.4 2.733-14.662 8.1502-18.417l.824-.5702.824.5702c5.4174 3.755 8.15 12.0282 8.15 18.417 0 6.193-2.5723 13.393-8.2767 16.5272l-.6964.3826-.6965-.3826zm15.5284 87.16c-.675-3.9524.1913-8.0546 1.8582-11.6552 1.9277-4.1637 4.97-7.8114 8.5516-10.6576 1.2326-.98 2.537-1.8723 3.9-2.675 3.466-2.0542 7.37-3.5935 11.3283-4.3656 3.506-.6847 7.3735-.818 10.823.2255l.9598.2904.0648 1c.2362 3.597-.7673 7.3346-2.2264 10.5952-1.6467 3.6808-4.03 7.1362-6.814 10.0484-1.087 1.1392-2.2512 2.2065-3.4836 3.1863-3.5817 2.8462-7.8222 4.984-12.314 5.9214-3.884.8098-8.076.7272-11.7733-.824l-.733-.3057-.1324-.784zm.523-26.807c-.8842-3.695-.32-7.626 1.0306-11.1346 1.562-4.0515 4.2062-7.6852 7.4102-10.595 1.1037-1 2.2783-1.923 3.5073-2.7648 5.5933-3.8343 13.8356-6.8647 20.6602-5.2828l.9763.2254.13.994c.916 6.945-2.8946 14.8592-7.2495 20.057-.955 1.1414-1.987 2.223-3.0906 3.224-3.204 2.9-7.075 5.1906-11.2573 6.3558-3.622 1.0082-7.5896 1.1888-11.182-.0473l-.7508-.2584-.1853-.7733zm-5.5755-22.0026c-1.0944-3.172-.9386-6.6733-.0507-9.8737 1.02-3.6797 3.0244-7.0867 5.5802-9.908.8795-.9693 1.8286-1.877 2.832-2.7188 4.5757-3.8402 11.5277-7.1858 17.6463-6.383l.994.13.2267.9763c1.3977 6.01-1.2526 13.2595-4.6265 18.1894-.7378 1.08-1.5476 2.113-2.427 3.0835-2.557 2.8202-5.7515 5.1482-9.313 6.5247-3.1 1.197-6.5672 1.693-9.8302.915l-.7732-.1842-.2586-.7507zm-7.0335-22.3104c-.9055-2.6562-.7697-5.5803-.0165-8.2566.8594-3.0564 2.5333-5.8813 4.6677-8.22 3.99-4.37 11.0106-8.306 17.0584-7.4904l.993.1346.2242.9762c1.1452 5.0126-1.0636 11.02-3.9 15.12-.6162.8937-1.2902 1.7483-2.0222 2.55-2.1344 2.3374-4.7976 4.2616-7.7618 5.395-2.596.9917-5.4965 1.393-8.2247.732l-.77-.1877-.256-.752zm-20.8952 72.2097c-3.6974 1.5512-7.888 1.6338-11.7733.824-4.4906-.9372-8.7322-3.0752-12.314-5.9214-1.2325-.9798-2.3953-2.047-3.4837-3.1863-2.7848-2.9123-5.166-6.3676-6.8127-10.0484-1.46-3.2606-2.4626-6.9982-2.2277-10.5952l.0662-1 .9585-.2904c3.4507-1.0436 7.318-.9102 10.8242-.2255 3.957.772 7.8623 2.3114 11.327 4.3656 1.3552.8028 2.6586 1.6952 3.8922 2.675 3.5817 2.8462 6.6227 6.494 8.5504 10.6576 1.667 3.6006 2.5346 7.7028 1.8594 11.6552l-.1334.784-.7332.3057zm-.5926-26.865c-3.5923 1.236-7.56 1.0555-11.183.0473-4.1825-1.1652-8.0522-3.446-11.2573-6.356-1.1027-1-2.1344-2.0824-3.0906-3.224-4.3538-5.1977-8.1656-13.112-7.2484-20.057l.13-.994.9774-.2254c6.8235-1.582 15.067 1.4485 20.6603 5.2827 1.2278.8418 2.4035 1.7638 3.506 2.7648 3.2052 2.9 5.8495 6.5437 7.4 10.5952 1.353 3.5084 1.916 7.4395 1.0318 11.1345l-.1853.7733-.75.2585zm5.48-22.0992c-3.263.778-6.7326.282-9.8302-.915-3.5616-1.3765-6.756-3.7045-9.313-6.5247-.8784-.9704-1.6883-2.0034-2.4284-3.0836-3.3728-4.9298-6.023-12.1782-4.6264-18.1893l.2267-.9763.9938-.13c6.1187-.8028 13.0707 2.5428 17.6476 6.383 1.0022.8417 1.9514 1.7495 2.83 2.7188 2.5568 2.8214 4.5603 6.2284 5.5814 9.908.8878 3.2003 1.0423 6.7017-.052 9.8737l-.2585.75-.772.1842zm7.037-22.306c-2.7282.66-5.6288.2598-8.2235-.7318-2.9655-1.1333-5.6276-3.0576-7.762-5.395-.733-.8015-1.4072-1.6563-2.0234-2.55-2.8262-4.0998-5.036-10.1063-3.9-15.1187l.2242-.9764.9928-.1345c6.05-.8158 13.0707 3.1212 17.0597 7.4904 2.1344 2.3386 3.8084 5.1636 4.6678 8.2198.753 2.6763.8878 5.6005-.0165 8.2566l-.2563.752-.772.1877z"/></g><path d="M180.1155 66.8274h0c4.4115-2.4225 7.5268-8.3416 7.5268-15.2594s-3.1153-14.17-7.5268-17.2273h0c-4.4104 3.0564-7.527 10.3096-7.527 17.2273s3.1166 12.837 7.527 15.2594h0zm16.257 88.184v.0012h.001c6.3147 2.6478 15.257.9585 22.627-4.898s12.458-15.316 11.98-22.6032h0v-.0012.0012c-7-2.112-17.356.707-24.7246 6.5625s-11.0368 14.1874-9.8845 20.9375h0zm.5035-26.899h.0012c6.108 2.1024 14.4224-.0425 20.9967-6.0124s10.7793-15.1897 9.8785-22.0214h0-.0012c-6.7112-1.5547-16.2934 1.7413-22.8678 7.7112s-9.5102 14.0387-8.0074 20.3225h0zm-5.6138-22.1378h0c5.487 1.308 12.53-1.2608 17.736-7.0052s8.0783-14.1142 6.717-19.973h0v-.0012.0012c-5.964-.7827-14.0115 2.8947-19.22 8.64s-7.0736 13.0058-5.2343 18.3382v.0012zM184.23 83.6697h.0013c4.4978 1.0896 10.2857-.9976 14.5758-5.697s6.67-11.5584 5.572-16.3715h0-.0012c-4.892-.6587-11.5065 2.334-15.7964 7.0336s-5.8447 10.653-4.3515 15.0338v.0012zm-22.82 71.3417l-.0012.0012c-6.3146 2.6478-15.2582.9585-22.627-4.898s-12.458-15.316-11.98-22.6032h0v-.0012.0012c6.99-2.112 17.3548.707 24.7248 6.5625s11.0367 14.1874 9.8833 20.9375h.001zm-.504-26.899h-.001c-6.1092 2.1024-14.4225-.0425-20.998-6.0124s-10.778-15.1897-9.8773-22.0214h0c6.7124-1.5547 16.2934 1.7413 22.87 7.7112s9.5102 14.0387 8.0062 20.3225h.0012zm5.614-22.1378h-.001c-5.486 1.308-12.53-1.2608-17.736-7.0052s-8.0783-14.1142-6.716-19.973h0v-.0012.0012c5.964-.7827 14.0116 2.8947 19.2177 8.64s7.0747 13.0058 5.2356 18.3382v.0012zm7.03-22.3048h0c-4.5 1.0896-10.2858-.9976-14.577-5.697s-6.67-11.5584-5.5708-16.3715h0c4.892-.6587 11.5076 2.334 15.7977 7.0336s5.8447 10.653 4.3502 15.0338v.0012z" fill="#fef400"/><path d="M99.4213 251.9396a127.43 127.43 0 0 1-14.1154-13.445l-8.069 4.9654-19.5316-31.7488 20.9187-2.4496.4722.8392c5.3394 9.4796 12.008 18.18 19.7677 25.805 21.4322 21.0627 49.9535 32.855 80.026 32.855s58.5913-11.792 80.0236-32.8525c7.7607-7.626 14.4294-16.3265 19.769-25.8074l.4734-.8392 20.9187 2.4496L280.542 243.46l-8.07-4.9654c-4.3538 4.8343-9.0757 9.3308-14.1143 13.444l5.2558 8.2163-35.1275 22.47-6.3843-9.9825c-7.377 2.715-14.9996 4.7292-22.7545 6.0183v10.529h-40.9155v-10.5315c-7.7535-1.289-15.376-3.303-22.7532-6.016l-6.3843 9.9825-35.1274-22.47 5.2545-8.2152z" fill="#000"/><path d="M178.89 270.2065h0c-43.365-.1428-81.1416-24.047-101.053-59.3965l-4.597.5384-13.1156 1.5346 17.5874 28.586 7.8682-4.8412c4.8908 5.5366 10.2634 10.6352 16.0503 15.232l-.293-.2337-5.173 8.09 32.69 20.9105 6.2342-9.7476-.176-.0672c7.965 3.028 16.3182 5.265 24.9644 6.6144v10.3176h38.0233v-10.314c8.5835-1.34 16.878-3.5546 24.7897-6.5507l6.2343 9.7475 32.6896-20.9105-5.1718-8.089-2.8132 2.1828a125.994 125.994 0 0 0 18.5755-17.1895l-.007.007 7.8705 4.8425 17.586-28.5862-17.7113-2.073c-19.9117 35.3495-57.6883 59.2537-101.053 59.3965z" fill="#da251d"/><g fill="#000"><path d="M172.8225 238.0512c-.0177-1.3457.5726-4.7385.6198-6.2365l.367-9.3073c.0543-1.8038-.0413-17.998-.2007-19.0393-.1404-.9114.0366-1.8015-.1038-2.713-.2314-1.5062-.1677-3.3916-.412-5.2202-.445-3.328-4.4423-12.6633-6.4184-15.6217-3.0174-4.52-6.75-7.86-11.0638-11.0992-4.4564-3.3468-9.568-5.8826-15.06-6.978-7.0607-1.4083-12.557-.686-19.4454 1.105-4.7433 1.2337-14.4932 3.047-18.8482.5796-2.7306-1.5476-3.68-4.4918-3.512-7.515.1347-2.4167.8795-7.2543 1.2266-9.9152-.7744.7-4.0598 5.63-4.826 6.807-3.1462 4.8342-3.8673 8.2895-2.4473 13.8144.4746 1.8464 1.0637 2.2524 2.596 3.2818 3.1672 2.1285 3.7988 3.0387 7.6013 4.153 2.014.5914 3.3964.4 5.4.4687 1.6517.0566.2.302 2.642-.0366 4.7586-.6588 7.7925-1.2526 12.5193-2.1746 1.6032-.314 3.865-.347 5.5213-.3518 2.7022-.0094 12.1853 2.2312 14.5203 3.1118 5.9534 2.2454 9.318 5.6453 12.3317 11.0557 3.8296 6.8717 5.7125 15.8035 5.7196 23.668.0036 3.63.0225 5.056-.236 8.58l-.5 5.3807c-.125 1.0223.2255.9775.9043 1.8 1.1498 1.3918 4.5982 4.9782 5.5437 6.2107.3885.5064 5.1837 5.9038 5.5626 6.193zm24.3855-46.857c.2715.3896.2963.398.7992.248l.006-.647c-.333.177-.4133.085-.805.4z"/><path d="M84.32 218.5402c.3517.354.1735.2962.693.2656-.0496-.353.007-.4746-.2657-.8146-.2738.635.195.2255-.4272.55zm100.6388 18.7015c.0177-1.3457-.5725-4.7385-.62-6.2365l-.366-9.3073c-.0554-1.8038.0402-17.998.2007-19.0393.1405-.9114-.0377-1.8015.1027-2.7128.2326-1.5063.1677-3.3917.412-5.2203.445-3.33 4.4433-12.6633 6.4184-15.623 3.0174-4.52 6.75-7.86 11.0638-11.098 4.4576-3.3468 9.5692-5.8837 15.0622-6.978 7.0595-1.4083 12.5572-.687 19.4444 1.105 4.7445 1.2337 14.4943 3.047 18.8492.5785 2.7306-1.5465 3.6797-4.4907 3.51-7.5153-.1335-2.4152-.8783-7.2542-1.2266-9.914.7744.7 4.0598 5.63 4.826 6.807 3.1472 4.8342 3.8686 8.2895 2.4484 13.8144-.4757 1.8464-1.0636 2.2525-2.596 3.2818-3.1673 2.1285-3.8 3.0387-7.6013 4.153-2.015.5903-3.3976.4002-5.4102.4687-1.6504.0566-.2.302-2.642-.0366-4.7575-.6588-7.7914-1.2526-12.518-2.1758-1.6032-.3127-3.8662-.3458-5.5225-.3518-2.7022-.0082-12.1853 2.2312-14.5204 3.113-5.952 2.2454-9.3166 5.6453-12.3316 11.0545-3.8284 6.8718-5.7125 15.8047-5.7196 23.6694-.0023 3.63-.0224 5.056.2373 8.58l.5 5.3807c.125 1.0223-.2255.9775-.9043 1.8-1.1498 1.3918-4.598 4.977-5.545 6.2107-.3872.5064-5.1825 5.9038-5.5614 6.193zm-24.3855-46.857c-.2715.3885-.2975.398-.8004.248l-.0048-.647c.3318.177.4132.085.8052.4zm112.8874 27.346c-.3506.354-.1724.2962-.692.2656.0485-.353-.007-.4757.2657-.8146.274.635-.196.2255.4262.55z"/><path d="M185.1537 237.6136c2.5333 2.6585 3.5982 6.6757 3.9346 10.2303.2468 2.5853-3.2488 8.0405-4.7067 10.0557-1.3647 1.884-3.0823 4.074-4.9015 5.5366l-.595.477-.5904-.4804c-1.8167-1.4816-3.526-3.6396-4.8967-5.533-1.459-2.0152-4.9546-7.4704-4.708-10.0557.3377-3.5546 1.4025-7.5718 3.9346-10.2303V196.606h12.529v41.0076z"/></g><path d="M178.89 237.9123h5.5413v-.0035c2.289 2.2607 3.813 5.8837 3.9382 10.0037.2432 1.511-1.6327 5.5-4.5744 9.5633-1.6775 2.3174-3.38 4.2134-4.768 5.3963l-.1382.1108-.137-.1108c-1.387-1.183-3.0894-3.079-4.768-5.3963-2.9407-4.0633-4.8165-8.0522-4.5734-9.5633.124-4.12 1.648-7.743 3.9383-10.0037v.0035h5.5413z" fill="#ef9a48"/><path d="M173.3492 197.329h11.0822v39.923h-11.0822z" fill="#fefefe"/><path d="M176.1816 248.2326a2.703 2.703 0 1 1 5.417 0 2.703 2.703 0 1 1-5.417 0z" fill="#006cb1"/><g fill="#000"><path d="M178.89 244.9036c.9196 0 1.7518.373 2.354.975s.975 1.4354.975 2.354-.373 1.7507-.975 2.354h-.001v.001c-.6033.602-1.4356.975-2.3528.975s-1.7495-.373-2.3528-.975l-.0012-.001a3.318 3.318 0 0 1-.9751-2.354c0-.9185.3718-1.752.975-2.354s1.4343-.975 2.354-.975zm1.8345 1.4945c-.47-.4698-1.118-.7602-1.8345-.7602a2.584 2.584 0 0 0-1.8346.7602c-.4698.47-.76 1.119-.76 1.8345s.2903 1.367.7578 1.8357l.0023.0012c.4675.4686 1.1168.76 1.8346.76s1.3658-.2904 1.8345-.76l.0012-.0012a2.588 2.588 0 0 0 .759-1.8357c0-.7154-.2904-1.3646-.7602-1.8345z" fill-rule="nonzero"/><path d="M178.5093 251.4672c0-.1635.1317-.2952.2952-.2952h.17c.1634 0 .295.1317.295.2952v11.57c0 .1636-.1316.2952-.295.2952h-.17c-.1635 0-.2952-.1316-.2952-.2952z"/></g><path d="M776.345 122.3104l148.8944.1193-.1016 185.785 94.1935-.1085.0388-185.84 150.8606.0247c-1.948-79.7662-71.9267-70.1414-160.592-70.1414l-233.6575.1003.3623 70.06zm-118.7353 91.4284l-.0508-57.6682c1.477-57.5455-12.8653-102.848 93.5784-104.2852l.1345 151.7378c0 57.36 12.8075 102.67-92.9786 104.2712v.013H485.232v-.013c-75.8517-1.1474-90.7286-24.7707-93.0753-59.1933v-37.1757c1.85-36.256 14.5085-61.3114 93.23-62.3738l.0578 64.6877h172.1657zm630.9365-63.9766h-.0332l.0332-97.9768c-74.9512.8854-91.1324 23.4-94.0933 56.5645v169.287l.026 30.1928 94.0674-.2348V149.7625z" fill="#e6e6e6"/></svg>